<?xml version="1.0" standalone="no"?>
<!DOCTYPE svg PUBLIC "-//W3C//DTD SVG 1.1//EN" "http://www.w3.org/Graphics/SVG/1.1/DTD/svg11.dtd" >
<!--
2013-9-30: Created.
-->
<svg>
<metadata>
Created by iconfont
</metadata>
<defs>

<font id="iconfont" horiz-adv-x="1024" >
  <font-face
    font-family="iconfont"
    font-weight="500"
    font-stretch="normal"
    units-per-em="1024"
    ascent="896"
    descent="-128"
  />
    <missing-glyph />
    
    <glyph glyph-name="dianzan" unicode="&#58980;" d="M868.354104 244.881658c56.047504 0 84.071767 168.143535 0 168.143535L700.206476 413.025193c168.147628 280.242635 46.413076 336.290139 0 336.290139 0-142.373615-209.370495-301.023938-420.36293-364.314403L279.843546-63.380124l-56.047504 0L223.796042 385.006046l56.047504 0 0 28.02938L167.749562 413.035426c-30.828123 0-56.047504-37.83777-56.047504-84.076884l0-336.291163c0-46.239114 25.219381-84.070744 56.047504-84.070744l112.095008 0 0 28.018124c238.850923-24.823362 155.578358-84.070744 392.338666-84.070744 56.047504 0 112.095008 28.02324 112.095008 84.070744 56.05262 0 84.076884 140.119271 56.05262 140.119271C896.378367 76.73403 932.281065 244.881658 868.354104 244.881658L868.354104 244.881658zM868.354104 244.881658"  horiz-adv-x="1024" />

    
    <glyph glyph-name="haoping" unicode="&#59104;" d="M960.036 399.322l-300.438 57.869L511.861 725.779 364.145 457.191 63.712 399.322l209.116-223.87-37.941-304.349 276.974 130.233 277-130.233-37.971 304.349L960.036 399.322zM598.514 379.971c17.15 0 31.09-20.893 31.09-46.633 0-25.748-13.939-46.633-31.09-46.633-17.186 0-31.091 20.885-31.091 46.633C567.423 359.078 581.328 379.971 598.514 379.971zM411.977 379.971c17.156 0 31.092-20.893 31.092-46.633 0-25.748-13.937-46.633-31.092-46.633-17.181 0-31.085 20.885-31.085 46.633C380.891 359.078 394.796 379.971 411.977 379.971zM505.245 100.174c-81.062 0-148.372 67.944-155.442 154.593 45.536-26.266 99.096-41.296 155.442-41.296 56.318 0 109.902 14.939 155.444 41.235C653.589 168.053 586.278 100.174 505.245 100.174z"  horiz-adv-x="1024" />

    
    <glyph glyph-name="cpu" unicode="&#59203;" d="M225.539 792.523c-0.177-1.577-0.297-3.175-0.297-4.801v-81.404c0-23.285 18.739-42.059 42.026-42.059s42.026 18.773 42.026 42.059v81.404c0 1.625-0.121 3.225-0.297 4.801h-83.456zM391.094 792.523c-0.177-1.577-0.297-3.175-0.297-4.801v-81.404c0-23.285 18.739-42.059 42.026-42.059s42.026 18.773 42.026 42.059v81.404c0 1.625-0.121 3.225-0.297 4.801h-83.456zM556.649 792.523c-0.177-1.577-0.297-3.175-0.297-4.801v-81.404c0-23.285 18.739-42.059 42.026-42.059s42.026 18.773 42.026 42.059v81.404c0 1.625-0.121 3.225-0.297 4.801h-83.456zM722.171 792.523c-0.175-1.577-0.267-3.175-0.267-4.801v-81.404c0-23.285 18.461-42.059 41.397-42.059s41.397 18.773 41.397 42.059v81.404c0 1.625-0.090 3.225-0.267 4.801h-82.263zM263.856 624.352c-45.745 0-82.562-36.815-82.562-82.562v-498.852c0-45.745 36.815-82.562 82.562-82.562h499.646c45.745 0 82.562 36.815 82.562 82.562v498.852c0 45.745-36.817 82.562-82.562 82.562h-499.646zM17.262 582.491v-82.795c0.054 0 0.11 0 0.166 0h81.404c23.285 0 42.026 18.461 42.026 41.397s-18.739 41.397-42.026 41.397h-81.404c-0.055 0-0.11 0-0.166 0zM931.11 582.491c-23.285 0-42.026-18.461-42.026-41.397s18.739-41.397 42.026-41.397h77.595v82.795h-77.595zM262.466 541.855h497.692v-493.982h-497.692v493.982zM294.854 509.434v-429.138h432.914v429.138h-432.914zM931.11 418.195c-23.285 0-42.026-18.739-42.026-42.026s18.739-42.026 42.026-42.026h77.595v84.053h-77.595zM17.262 417.101v-84.053h81.137c23.285 0 42.026 18.739 42.026 42.026s-18.739 42.026-42.026 42.026h-81.137zM931.11 252.64c-23.285 0-42.026-18.739-42.026-42.026s18.739-42.026 42.026-42.026h77.595v84.053h-77.595zM17.262 250.718v-84.053h81.137c23.285 0 42.026 18.739 42.026 42.026s-18.739 42.026-42.026 42.026h-81.137zM17.262 87.084v-84.053c0.054 0 0.11 0 0.166 0h81.404c23.285 0 42.026 18.739 42.026 42.026s-18.739 42.026-42.026 42.026h-81.404c-0.055 0-0.11 0-0.166 0zM931.11 87.084c-23.285 0-42.026-18.739-42.026-42.026s18.739-42.026 42.026-42.026h77.595v84.053h-77.595zM264.685-79.862c-22.937 0-41.397-18.739-41.397-42.026v-78.721h82.827v78.721c0 23.285-18.493 42.026-41.431 42.026zM430.239-79.862c-23.285 0-42.059-18.739-42.059-42.026v-78.721h84.085v78.721c0 23.285-18.739 42.026-42.026 42.026zM596.391-79.862c-22.937 0-41.397-18.739-41.397-42.026v-78.721h82.795v78.721c0 23.285-18.461 42.026-41.397 42.026zM761.349-79.862c-22.937 0-41.397-18.739-41.397-42.026v-78.721h82.827v78.721c0 23.285-18.494 42.026-41.431 42.026z"  horiz-adv-x="1024" />

    
    <glyph glyph-name="rongliangshezhi" unicode="&#58920;" d="M473.5 606.375c-10.625 0-19.125-8.5-19.125-19.125l0-150c-50.75-22.125-86.25-72.875-86.25-131.875 0-79.5 64.375-143.875 143.875-143.875 79.5 0 143.875 64.375 143.875 143.875 0 59-35.5 109.625-86.25 131.875l0 150c0 10.5-8.5 19.125-19.125 19.125L473.5 606.375 473.5 606.375zM473.5 606.375M992 512l-96 0c-1.625 0-3.25-0.25-4.875-0.5-5.875 17.375-12.875 34.25-20.875 50.375 1.25 1 2.625 2 3.75 3.125l67.875 67.875c12.5 12.5 12.5 32.75 0 45.25L806.125 813.875c-12.5 12.5-32.75 12.5-45.25 0l-67.875-67.875c-1.125-1.125-2.125-2.5-3-3.75-16.25 8-33 15-50.375 20.875 0.25 1.625 0.5 3.25 0.5 4.875L640.125 864c0 17.625-14.375 32-32 32L416 896c-17.625 0-32-14.375-32-32l0-96c0-1.625 0.25-3.25 0.5-4.875-17.375-5.875-34.25-12.875-50.375-20.875-1 1.25-1.875 2.625-3.125 3.75l-67.875 67.875c-12.5 12.5-32.75 12.5-45.25 0l-135.75-135.75c-12.5-12.5-12.5-32.75 0-45.25l67.875-67.875c1.125-1.125 2.5-2.125 3.75-3.125-8-16.25-15-33-20.875-50.375-1.625 0.25-3.25 0.5-4.875 0.5L32 512c-17.625 0-32-14.375-32-32L0 288c0-17.625 14.375-32 32-32l96 0c1.625 0 3.25 0.25 4.875 0.5 5.875-17.375 12.875-34.25 20.875-50.375-1.25-1-2.625-1.875-3.75-3l-67.875-67.875c-12.5-12.5-12.5-32.75 0-45.25l135.75-135.75c12.5-12.5 32.75-12.5 45.25 0l67.875 67.875c1.125 1.125 2.125 2.5 3.125 3.75 16.25-8.125 33-15 50.375-20.875-0.25-1.625-0.5-3.25-0.5-4.875L384-96c0-17.625 14.375-32 32-32L608-128c17.625 0 32 14.375 32 32l0 96c0 1.625-0.25 3.25-0.5 4.875 17.375 5.875 34.25 12.75 50.375 20.875 1-1.25 1.875-2.625 3-3.75l67.875-67.875c12.5-12.5 32.75-12.5 45.25 0l135.75 135.75c12.5 12.5 12.5 32.75 0 45.25l-67.875 67.875c-1.125 1.125-2.5 2.125-3.75 3 8.125 16.25 15 33 20.875 50.375 1.625-0.25 3.25-0.5 4.875-0.5L992 255.875c17.625 0 32 14.375 32 32L1024 480C1024 497.625 1009.625 512 992 512L992 512zM512 96c-159 0-288 129-288 288 0 159 129 288 288 288 159.125 0 288-129 288-288C800 225 671.125 96 512 96L512 96zM512 96"  horiz-adv-x="1024" />

    
    <glyph glyph-name="set" unicode="&#58969;" d="M428.324 384.013c0-46.597 37.456-84.372 83.661-84.372s83.661 37.776 83.661 84.372c0 46.597-37.456 84.372-83.661 84.372-46.204 0-83.661-37.776-83.661-84.372zM905.952 284.586l-65.362 37.994c3.665 19.986 6.065 40.366 6.065 61.433 0 21.040-2.425 41.448-6.065 61.433l65.363 38.020c26.683 15.53 35.78 49.964 20.381 76.858l-55.738 97.397c-15.397 26.894-49.542 36.148-76.225 20.592l-65.994-38.39c-30.822 26.419-65.863 48.066-104.832 61.988v47.722c0 31.033-24.968 56.24-55.792 56.24h-111.53c-30.822 0-55.818-25.207-55.818-56.24v-47.722c-38.944-13.921-73.984-35.569-104.806-61.988l-65.994 38.39c-26.656 15.53-60.801 6.276-76.198-20.592l-55.765-97.423c-15.397-26.894-6.276-61.328 20.381-76.858l65.336-38.020c-3.665-19.959-6.065-40.393-6.065-61.433 0-21.067 2.425-41.448 6.065-61.433l-65.336-37.994c-26.656-15.503-35.78-49.938-20.381-76.831l55.764-97.423c15.371-26.894 49.516-36.148 76.198-20.592l65.994 38.416c30.822-26.445 65.863-48.092 104.806-62.014v-47.75c0-31.059 24.968-56.24 55.818-56.24h111.53c30.822 0 55.792 25.179 55.792 56.24v47.749c38.97 13.895 74.010 35.569 104.832 62.014l65.994-38.416c26.683-15.556 60.828-6.276 76.225 20.592l55.764 97.423c15.397 26.894 6.276 61.328-20.408 76.858zM511.985 243.375c-77.016 0-139.425 62.963-139.425 140.638s62.409 140.612 139.425 140.612c77.042 0 139.478-62.937 139.478-140.612s-62.436-140.638-139.478-140.638z"  horiz-adv-x="1024" />

    
    <glyph glyph-name="jiankong" unicode="&#59024;" d="M208.825073 102.397391 93.628424 102.397391c-31.852452 0-57.600883-25.803689-57.600883-57.598836l0-115.198695c0-31.851429 25.747407-57.598836 57.600883-57.598836l115.197672 0c31.852452 0 57.600883 25.747407 57.600883 57.598836L266.426979 44.798555C266.425955 76.593701 240.678548 102.397391 208.825073 102.397391zM554.421158 217.596086 439.223486 217.596086c-31.852452 0-57.600883-25.804712-57.600883-57.598836l0-230.398414c0-31.851429 25.747407-57.598836 57.600883-57.598836L554.421158-128c31.852452 0 57.600883 25.747407 57.600883 57.598836L612.022041 159.99725C612.022041 191.791373 586.274634 217.596086 554.421158 217.596086zM900.017244 390.393617 784.819572 390.393617c-31.853475 0-57.600883-25.804712-57.600883-57.598836l0-403.195945c0-31.851429 25.747407-57.598836 57.600883-57.598836l115.197672 0c31.852452 0 57.600883 25.747407 57.600883 57.598836L957.618127 332.794781C957.617104 364.588905 931.869696 390.393617 900.017244 390.393617zM580.744687 407.212678 580.716035 407.242354 987.972459 814.497755 906.525472 896 499.265978 488.692411 377.10266 610.854705 377.131313 610.883357 295.628044 692.387649 51.234895 447.992453 132.73714 366.491231 295.656697 529.409764 499.299747 325.766714Z"  horiz-adv-x="1024" />

    
    <glyph glyph-name="manyi" unicode="&#59256;" d="M511.477 840.006c-240.361 0-434.691-194.333-434.691-434.691-0.638-239.715 194.333-434.687 434.691-434.687 240.357 0 434.691 194.972 434.691 434.687 0 240.357-194.972 434.691-434.691 434.691v0zM257.695 466.043c0 44.747 36.437 80.547 80.544 80.547 44.11 0 79.907-36.437 79.907-80.547 0-44.747-35.798-80.544-79.907-80.544-44.11 0-79.904 36.435-80.544 80.544v0zM677.046 217.175c-46.027-34.521-103.558-54.972-165.567-54.972-62.006 0-119.538 20.451-165.565 54.972-14.705 10.866-17.901 31.962-7.034 46.663 10.867 14.705 31.964 17.901 46.665 7.034 35.801-26.211 78.628-41.553 125.933-41.553 47.303 0 90.775 15.343 125.933 41.553 14.702 10.867 35.801 7.669 46.665-7.034 10.867-15.342 7.669-35.798-7.030-46.663v0zM684.077 385.498c-44.11 0-79.906 36.435-80.544 80.544 0 44.747 35.798 80.547 80.544 80.547 44.747 0 80.544-36.437 80.544-80.547 0-44.747-36.437-80.544-80.544-80.544v0z"  horiz-adv-x="1024" />

    
    <glyph glyph-name="jinggao" unicode="&#58932;" d="M1008.82963 118.337919c0 0-387.566843 662.800705-437.773545 745.876543-59.236684 71.51746-127.503351 0-127.503351 0S98.968607 269.319224 35.75873 161.681834C-52.373898 36.345679 50.567901 14.312522 50.567901 14.312522s852.069136 0 939.840564 0C1052.173545 37.790476 1008.82963 118.337919 1008.82963 118.337919L1008.82963 118.337919zM511.458201 151.207055c-27.812346 0-50.206702 22.394356-50.206702 50.206702s22.394356 50.206702 50.206702 50.206702 50.206702-22.394356 50.206702-50.206702S539.270547 151.207055 511.458201 151.207055L511.458201 151.207055zM562.026102 358.17425c0-27.812346-22.394356-50.206702-50.206702-50.206702s-50.206702 22.394356-50.206702 50.206702L461.612698 603.067372c0 27.812346 22.394356 50.206702 50.206702 50.206702s50.206702-22.394356 50.206702-50.206702L562.026102 358.17425 562.026102 358.17425z"  horiz-adv-x="1024" />

    
    <glyph glyph-name="cpu1" unicode="&#58953;" d="M426.67008 810.66496H341.33504V896h85.33504v-85.33504z m-341.33504-512H0v-85.33504h85.33504v85.33504z m0 128H0v-85.33504h85.33504V426.66496z m0 128H0v-85.33504h85.33504V554.66496z m0 213.33504c0 23.51616 19.1232 42.66496 42.66496 42.66496h170.67008V896H128C57.2928 896 0 838.68672 0 768v-170.67008h85.33504V768z m469.32992 128H469.33504v-85.33504h85.33504V896z m127.99488 0h-85.32992v-85.33504h85.32992V896z m-142.07488-495.35488c0 13.89568-9.12896 16.91648-23.00416 16.91648h-19.82976v-33.81248h19.82976c13.952 0 23.00416 2.95424 23.00416 16.896zM170.67008 725.32992h682.67008v-682.67008H170.67008V725.32992z m428.45696-366.75072c0-40.3712 23.37792-59.91424 63.45728-59.91424 39.04512 0 63.58528 19.50208 63.58528 59.91424V449.41824h-38.7072v-90.83392c0-20.36736-6.88128-26.33216-24.87808-26.33216-18.87232 0-24.87296 8.99584-24.87296 26.33216V449.41824h-38.5792v-90.83904z m-140.0832-56.78592h38.7072v50.04288h28.25216c33.61792 0 52.2496 20.23936 52.2496 48.81408 0 29.02016-19.1232 48.768-52.2496 48.768H459.04384v-147.62496z m-159.50336 73.21088c0-43.0848 27.54048-76.3392 72.62208-76.3392 35.16928 0 61.75232 20.37248 65.75104 64.91648h-37.5808c-6.29248-46.78656-62.08-41.07776-62.08 11.42272 0 23.99744 9.66656 43.93472 33.91488 43.93472 13.08672 0 24.58624-7.91552 27.00288-24.43776h37.5808c-3.82976 39.33184-31.12448 58.22976-64.58368 58.22976-44.79488-0.00512-72.6272-33.58208-72.6272-77.72672z m639.11936-33.67424H1024V426.66496h-85.34016v-85.33504zM85.33504 0v170.65984H0V0c0-70.66624 57.2928-128 128-128h170.67008v85.32992H128c-23.54176 0-42.66496 19.16928-42.66496 42.67008z m853.3248 0c0-23.5008-19.11296-42.67008-42.65984-42.67008h-170.67008V-128H896c70.71232 0 128 57.33376 128 128v170.65984h-85.34016V0z m0 213.32992H1024v85.33504h-85.34016v-85.33504z m0 256H1024V554.66496h-85.34016v-85.33504zM896 896h-170.67008v-85.33504H896c23.54688 0 42.65984-19.14368 42.65984-42.66496v-170.67008H1024V768c0 70.68672-57.28768 128-128 128zM341.33504-128h85.33504v85.32992H341.33504V-128z m255.99488 0h85.32992v85.32992h-85.32992V-128z m-127.99488 0h85.33504v85.32992H469.33504V-128z"  horiz-adv-x="1024" />

    
    <glyph glyph-name="yuyinhecheng" unicode="&#58881;" d="M36.771 440.32c-20.34 0-36.771-19.177-36.771-42.822v-120.087c0-23.645 16.431-42.822 36.771-42.822 20.294 0 36.724 19.177 36.724 42.822v120.087c0 23.645-16.431 42.822-36.771 42.822zM183.715 484.445c-20.294 0-36.771-17.315-36.771-38.679v-216.623c0-21.364 16.477-38.633 36.771-38.633 20.294 0 36.771 17.268 36.771 38.633v216.623c0 21.364-16.477 38.633-36.771 38.633zM330.705 572.649c-20.294 0-36.771-19.549-36.771-43.567v-383.255c0-24.064 16.477-43.567 36.771-43.567 20.294 0 36.771 19.549 36.771 43.567v383.255c0 24.064-16.477 43.567-36.771 43.567zM786.385 572.649c-20.294 0-36.771-19.549-36.771-43.567v-383.255c0-24.064 16.477-43.567 36.771-43.567 20.294 0 36.771 19.549 36.771 43.567v383.255c0 24.064-16.477 43.567-36.771 43.567zM933.376 484.445c-20.294 0-36.771-17.315-36.771-38.679v-216.623c0-21.364 16.477-38.633 36.771-38.633 20.294 0 36.771 17.268 36.771 38.633v216.623c0 21.364-16.477 38.633-36.771 38.633zM1080.367 440.367c-20.34 0-36.771-19.223-36.771-42.915v-119.994c0-23.738 16.431-42.915 36.771-42.915 20.294 0 36.724 19.223 36.724 42.915v119.994c0 23.738-16.431 42.915-36.771 42.915zM632.041-118.179v867.188h308.689l29.37 146.991h-823.11l29.37-146.991h308.689v-867.188h146.991z"  horiz-adv-x="1117" />

    
    <glyph glyph-name="haoping1" unicode="&#59083;" d="M542.117647 173.176471c168.658824 18.070588 301.176471 171.670588 301.176471 361.411764 0 60.235294-12.047059 117.458824-36.141177 165.647059-15.058824 30.117647-159.623529-15.058824-159.623529-15.058823s-87.341176 120.470588-135.529412 120.470588-138.541176-120.470588-138.541176-120.470588-141.552941 45.176471-156.611765 15.058823c-24.094118-48.188235-36.141176-105.411765-36.141177-165.647059 0-189.741176 132.517647-343.341176 301.176471-361.411764v-183.717647c0-15.058824 12.047059-30.117647 30.117647-30.117648s30.117647 12.047059 30.117647 30.117648V173.176471zM602.352941-10.541176c-9.035294 0-15.058824 3.011765-21.082353 9.035294-12.047059 12.047059-12.047059 30.117647 0 42.164706 129.505882 123.482353 283.105882 132.517647 289.129412 132.517647 15.058824 0 30.117647-12.047059 30.117647-30.117647s-12.047059-30.117647-30.117647-30.117648c0 0-135.529412-6.023529-249.976471-114.447058-3.011765-6.023529-12.047059-9.035294-18.070588-9.035294zM418.635294-10.541176c-6.023529 0-15.058824 3.011765-21.082353 9.035294-114.447059 108.423529-246.964706 114.447059-249.97647 114.447058-18.070588 0-30.117647 15.058824-30.117647 30.117648 0 18.070588 15.058824 30.117647 30.117647 30.117647 6.023529 0 159.623529-6.023529 289.129411-132.517647 12.047059-12.047059 12.047059-30.117647 0-42.164706 0-6.023529-9.035294-9.035294-18.070588-9.035294z"  horiz-adv-x="1024" />

    
    <glyph glyph-name="lingdang" unicode="&#58934;" d="M648.19 8.344c-0.136-75.185-60.612-136.105-136.344-136.105-75.185 0-136.173 60.68-136.31 136.105h272.655zM602.97 807.436C602.97 856.24 562.22 896 511.95 896c-50.204 0-91.056-39.658-91.056-88.564 0-4.983 0.444-9.863 1.229-14.607-125.696-42.627-217.06-151.669-217.06-306.51v-170.645s-11.774-148.562-56.141-150.098c-26.416 0-46.688-19.829-46.688-44.265 0-24.641 20.375-44.265 45.528-44.265h728.376c25.255 0 45.494 19.794 45.494 44.265 0 24.607-20.375 44.265-45.494 44.265-45.528 0-56.756 150.098-56.756 150.098V486.318c0 155.013-85.22 264.123-217.605 306.613a88.498 88.498 0 0 1 1.194 14.505z"  horiz-adv-x="1024" />

    
    <glyph glyph-name="flower" unicode="&#58880;" d="M511.059 741.336c0 0-14.841-2.734-27.34 15.232s-58.975 80.847-148.806 78.504c-89.83-2.343-160.718-76.941-157.398-170.677 3.906-85.143 58.233-238.441 286.909-360.101 10.936-10.936 9.131-20.31 9.131-20.31l0.243-147.634c0 0 4.187-22.653-14.561-17.966-18.747 4.687-26.559 38.354-26.559 38.354s-27.074 75.692-79.41 112.405c-52.336 36.713-105.062 76.161-211.296 94.908-5.858-91.002 27.535-219.303 79.285-282.379 87.682-112.092 205.438-136.112 283.896-143.253 100.812 0 234.386 50.494 303.516 156.532 77.918 104.867 69.52 269.491 69.52 269.491s-124.591-21.090-215.397-100.181c-53.899-46.282-71.050-90.954-79.101-103.476-13.909-20.724-8.199-31.269-25.579-49.040-20.114-14.451-17.605 1.172-18.582 21.481s1.686 141.776 1.686 141.776-6.179 23.825 25.458 37.494c122.443 67.177 210.944 167.943 252.54 272.225 42.767 97.837 14.060 226.137-122.247 249.244-104.476 13.802-163.256-77.395-163.256-77.395s-6.249-14.843-22.653-15.233z"  horiz-adv-x="1024" />

    
    <glyph glyph-name="gongjuxiang" unicode="&#58908;" d="M662.820763 609.92707v86.23542c0.729778 20.55541-23.717781 43.056895-43.056896 43.056895h-237.177812c-19.825632 0-43.056895-21.771707-43.056895-43.056895v-86.23542H210.236845C178.004989 609.92707 145.529873 575.50588 145.529873 545.220097V437.45623h732.818624v107.763867c0 32.110227-32.596745 64.706972-64.706972 64.706973h-150.820762z m-64.706973 0H404.114503v43.056895c0 13.136002 8.514075 21.528448 21.528447 21.528447h150.820763c13.014372 0 21.528448-8.514075 21.528448-21.528447v-43.056895h0.121629z m-86.965198-301.033377c42.448747 0 43.908303 52.179119 43.908303 85.384012h-107.763867c0.729778-26.758522 0.851408-86.23542 43.056895-86.23542 0 0.12163 11.919705 0.851408 20.798669 0.851408z m86.965198 85.505642s34.177931-129.292315-97.060458-129.292315c-135.373797 0-96.938829 129.292315-96.938829 129.292315H145.529873v-301.763155c0-33.083264 29.069486-64.706972 64.706972-64.706972h603.52631c32.353486 0 64.706972 27.853189 64.706972 64.706972V394.399335H598.11379z"  horiz-adv-x="1024" />

    
    <glyph glyph-name="neicun" unicode="&#59423;" d="M833.759 428.113c0 24.042 19.49 43.532 43.532 43.532h70.738v126.98c0 24.174-12.132 45.506-30.632 58.265L740.567 833.722v-0.17c-12.884 13.501-31.04 21.927-51.174 21.927-2.33 0-4.632-0.12-6.905-0.34H153.62a71.607 71.607 0 0 1-6.904 0.34c-39.07 0-70.744-31.672-70.744-70.744 0-0.057 0.004-0.113 0.004-0.17h-0.004v-43.533h-0.001V-16.58c0.002-39.071 31.675-70.743 70.745-70.743a71.34 71.34 0 0 1 8.007 0.464h650.563v-0.621l72.005 0.002v0.155c39.068 0.004 70.738 31.675 70.738 70.745V265.442H877.33l-0.04-0.001c-24.042 0-43.532 19.49-43.532 43.532h-0.003v119.14h0.004zM538.95 562.15V741.034c0 24.041 19.49 43.531 43.533 43.531 24.041 0 43.532-19.49 43.532-43.531 0-1.16-0.06-2.305-0.148-3.44V558.71c0-24.04-19.49-43.531-43.533-43.531s-43.532 19.49-43.532 43.532c0 1.16 0.06 2.304 0.148 3.44z m-174.13-0.006V741.034c0 24.041 19.49 43.531 43.532 43.531s43.532-19.49 43.532-43.531c0-1.158-0.059-2.3-0.147-3.434v-178.889c0-24.04-19.49-43.531-43.532-43.531s-43.533 19.49-43.533 43.532c0 1.155 0.06 2.298 0.147 3.433z m-174.204 0V741.034c0 24.041 19.49 43.531 43.532 43.531s43.533-19.49 43.533-43.531c0-1.158-0.06-2.3-0.148-3.434v-178.889c0-24.04-19.49-43.531-43.532-43.531s-43.533 19.49-43.533 43.532c0 1.155 0.059 2.298 0.148 3.433z m549.95-490.27c0-24.042-19.49-43.533-43.532-43.533H233.78v0.007c-23.907 0.16-43.238 19.583-43.238 43.525h-0.295V199.69c0 24.042 19.49 43.532 43.533 43.532l0.04-0.001h463.215c24.042 0 43.531-19.49 43.532-43.53v-127.817z m64.718-88.454h-0.005v0.002h0.005v-0.002z"  horiz-adv-x="1024" />

    
    <glyph glyph-name="fangyingji" unicode="&#59069;" d="M389.952 405.12h186.364c-19.065 9.491-36.371 22.009-51.283 36.907-35.344 35.343-57.212 84.177-57.212 138.108s21.868 102.764 57.212 138.108 84.177 57.212 138.108 57.212c53.932 0 102.765-21.868 138.109-57.212 35.357-35.344 57.211-84.177 57.211-138.108S836.607 477.37 801.25 442.027c-14.912-14.898-32.218-27.417-51.284-36.907h34.88l82.107 56.057-9.645 14.124 31.711 21.643 71.504-104.778-31.698-21.643-11.068 16.193-77.699-53.029V38.42c0-25.008-20.461-45.469-45.455-45.469h-506.12c-25.007 0-45.468 20.461-45.468 45.469v96.976H127.86v-21.206H64.212V323.294h63.647v-22.727h115.155v59.1c0 14.7 7.068 27.81 17.968 36.131-17.531 7.295-33.302 17.953-46.51 31.161-26.035 26.037-42.144 61.999-42.144 101.737 0 39.723 16.109 75.7 42.144 101.737 26.037 26.035 62.014 42.144 101.737 42.144s75.7-16.109 101.75-42.144c26.022-26.036 42.131-62.014 42.131-101.737 0-39.738-16.109-75.7-42.131-101.737a144.976 144.976 0 0 0-28.007-21.839z m374.432 81.149l-74.982 43.301v-84.98c27.6 5.309 52.269 18.827 71.35 37.921a180.822 180.822 0 0 1 3.632 3.758zM609.674 575.6l-78.46 45.299a138.17 138.17 0 0 1-6.125-40.764c0-17.01 3.084-33.302 8.716-48.354l75.869 43.819z m-53.254 92.119l79.84-46.102v93.951c-27.346-5.407-51.791-18.869-70.745-37.823a139.356 139.356 0 0 1-9.095-10.026zM715.973 575.6l76.404-44.115c5.69 15.137 8.816 31.527 8.816 48.65 0 14.307-2.169 28.106-6.21 41.074l-79.01-45.609z m-79.713-46.03l-74.574-43.061a172.074 172.074 0 0 1 3.83-3.998c18.954-18.94 43.399-32.416 70.745-37.808V529.57h-0.001z m53.142 92.047l80.263 46.342a136.361 136.361 0 0 1-8.912 9.786c-19.081 19.094-43.75 32.626-71.35 37.95v-94.078h-0.001zM390.796 459.558l-55.24 31.894v-62.605c20.332 3.915 38.498 13.87 52.565 27.951 0.902 0.901 1.789 1.83 2.675 2.76z m-113.958 65.801l-57.816 33.357a102.07 102.07 0 0 1-4.493-30.021c0-12.532 2.254-24.53 6.408-35.625l55.901 32.289z m-39.245 67.842l58.817-33.935v69.196c-20.149-3.971-38.146-13.899-52.099-27.868a101.082 101.082 0 0 1-6.718-7.393z m117.536-67.842l56.282-32.499c4.196 11.137 6.491 23.219 6.491 35.836 0 10.533-1.605 20.7-4.577 30.247l-58.196-33.584z m-58.719-33.922l-54.944-31.711c0.943-0.999 1.873-1.986 2.845-2.929 13.953-13.969 31.95-23.895 52.099-27.866v62.506z m39.147 67.815l59.127 34.133a106.368 106.368 0 0 1-6.562 7.21c-14.067 14.082-32.232 24.037-52.565 27.966v-69.309z"  horiz-adv-x="1024" />

    
    <glyph glyph-name="yujing" unicode="&#59127;" d="M282.762315 78.806406h451.66039V344.026493c0 124.206505-101.62369 225.830195-225.830195 225.830195-124.206505 0-225.830195-101.62369-225.830195-225.830195v-265.220087zM512.268258 646.951157c20.58931 0 37.436319 16.845985 37.436319 37.43632V787.623786c0 20.58931-16.845985 37.436319-37.436319 37.436319-20.58931 0-37.436319-16.845985-37.436319-37.436319v-103.236309c0-20.590334 16.845985-37.436319 37.436319-37.43632zM920.563009 468.912858H817.326699c-20.675316 0-37.436319-16.761003-37.436319-37.436319s16.761003-37.436319 37.436319-37.43632h103.23631c20.675316 0 37.436319 16.761003 37.436319 37.43632 0 20.67634-16.761003 37.436319-37.436319 37.436319zM247.575472 431.477563c0 20.675316-16.761003 37.436319-37.43632 37.436319H106.902843c-20.675316 0-37.436319-16.761003-37.436319-37.436319s16.761003-37.436319 37.436319-37.43632h103.236309c20.675316 0 37.436319 16.761003 37.43632 37.43632zM698.00208 574.510247c14.620059-14.620059 38.323004-14.620059 52.942038 0l72.998928 72.998928c14.620059 14.620059 14.620059 38.323004 0 52.942038-14.620059 14.620059-38.323004 14.620059-52.942038 0l-72.998928-72.998928c-14.619035-14.619035-14.619035-38.323004 0-52.942038zM267.549426 574.510247c14.620059-14.620059 38.323004-14.620059 52.942039 0 14.620059 14.620059 14.620059 38.323004 0 52.942038l-72.998928 72.998928c-14.620059 14.620059-38.323004 14.620059-52.942039 0-14.620059-14.620059-14.620059-38.323004 0-52.942038l72.998928-72.998928zM780.419729 41.182716H244.116787c-24.414546 0-44.207273-19.792727-44.207273-44.207273 0-24.415569 19.792727-44.207273 44.207273-44.207273h536.303966c24.415569 0 44.207273 19.792727 44.207273 44.207273-0.001024 24.415569-19.792727 44.207273-44.208297 44.207273z"  horiz-adv-x="1024" />

    
    <glyph glyph-name="fuzhi" unicode="&#58911;" d="M619.699 152.805c-90.334 0-180.669-0.001-271.002 0.001-38.981 0.001-69.333 30.329-69.338 69.432-0.025 179.586-0.024 359.17 0 538.756 0.005 39.295 30.402 69.546 69.733 69.546h541.077c39.57 0 69.797-30.211 69.807-69.936 0.033-132.563 0.011-265.125 0.011-397.688 0-46.869 0.035-93.737-0.011-140.605-0.035-34.412-23.456-62.525-57.267-68.698-3.771-0.688-7.693-0.772-11.544-0.773-90.488-0.042-180.978-0.035-271.466-0.035z m-0.388 55.688c81.518 0 163.038-0.026 244.555 0.051a160.72 160.72 0 0 1 19.415 1.209c11.563 1.421 17.301 6.684 19.046 18.11 1.184 7.755 1.714 15.685 1.718 23.536 0.094 160.254 0.081 320.506 0.03 480.76-0.002 6.48-0.409 12.977-0.977 19.436-1.225 13.905-6.372 19.661-20.03 21.929-5.765 0.958-11.689 1.333-17.542 1.336a507259.17 507259.17 0 0 1-491.897-0.016c-6.459-0.005-12.979-0.676-19.361-1.714-10.418-1.697-15.703-6.787-17.224-17.202a176.976 176.976 0 0 1-1.872-25.387c-0.105-159.326-0.088-318.651-0.039-477.976 0.002-6.483 0.372-12.981 0.918-19.441 1.344-15.867 6.932-21.768 22.522-23.63 5.662-0.676 11.403-0.953 17.107-0.957 81.211-0.063 162.421-0.044 243.631-0.044zM404.089-62.525c-90.327 0-180.653-0.003-270.98 0.001-38.407 0.002-69.054 30.357-69.066 68.749-0.057 180.034-0.056 360.07-0.001 540.105 0.011 38.444 30.645 68.876 68.985 68.877 22.117 0.001 44.235 0.01 66.352-0.003 16.367-0.009 28.325-11.793 28.296-27.853-0.028-15.772-12.03-27.547-28.038-27.718-18.081-0.195-36.16-0.549-54.241-0.838-0.463-0.008-0.928-0.031-1.389-0.075-15.463-1.438-21.737-7.66-23.248-23.55a211.388 211.388 0 0 1-0.955-19.906c-0.051-159.309-0.066-318.618 0.033-477.927 0.005-8.159 0.626-16.379 1.749-24.461 1.61-11.587 7.513-17.063 19.24-18.472 6.124-0.736 12.321-1.19 18.485-1.192 163.331-0.062 326.662-0.059 489.993-0.008 5.548 0.002 11.128 0.366 16.641 1.003 14.752 1.706 20.955 7.761 21.761 22.724 0.871 16.194 0.888 32.44 1.046 48.667 0.168 17.346 12.431 30.143 28.735 29.658 16.622-0.495 28.146-14.57 27.507-31.99-0.697-18.998-0.228-38.037-0.348-57.06-0.185-29.411-18.394-55.538-45.96-64.877-7.036-2.384-14.792-3.674-22.224-3.695-90.792-0.245-181.582-0.159-272.373-0.159zM585.016 459.465h-6.162c-42.227 0-84.453-0.031-126.68 0.016-15.877 0.018-29.69 12.003-31.601 27.214-2.136 16.999 7.571 31.904 23.668 35.988 3.098 0.785 6.417 0.961 9.634 0.966 41.608 0.061 83.216 0.04 124.824 0.04h6.318v6.161c0 41.764-0.004 83.526 0.003 125.288 0.002 19.198 13.693 33.39 32.185 33.393 18.457 0.003 32.213-14.228 32.221-33.413 0.02-41.762 0.006-83.525 0.006-125.287v-6.144h6.338c42.227 0 84.453 0.051 126.68-0.027 15.812-0.03 29.101-11.563 31.363-26.866 2.374-16.058-6.891-31.214-22.137-35.772-3.348-1.001-6.976-1.485-10.478-1.493-41.917-0.1-83.835-0.065-125.752-0.065h-6.012v-5.853c0-42.073 0.083-84.144-0.049-126.217-0.043-13.788-6.354-24.257-19.017-29.829-12.351-5.434-24.298-3.671-34.615 5.287-7.256 6.3-10.735 14.566-10.735 24.231 0.003 42.227 0.001 84.452 0.001 126.678-0.003 1.684-0.003 3.366-0.003 5.704z"  horiz-adv-x="1024" />

    
    <glyph glyph-name="rizhi" unicode="&#58892;" d="M896.7618629378826 827.540654746088H186.49664722467412v-118.01302706608394h-86.32040508717449c-16.250314760167374 0-31.692621978909447-11.5247999828474-31.692621978909447-27.77395879517297v-59.00651353304197c0-16.249158812325565 15.443463166583877-31.23139879002719 31.692621978909447-31.23139879002719h86.32040508717449v-59.00651353304197h-86.32040508717449c-16.250314760167374 0-31.692621978909447-11.5247999828474-31.692621978909447-27.77395879517297V445.72761475266304c0-16.249158812325565 15.443463166583877-31.23139879002719 31.692621978909447-31.23139879002719h86.32040508717449v-59.00651353304197h-86.32040508717449c-16.250314760167374 0-31.692621978909447-11.5247999828474-31.692621978909447-27.77395879517297v-59.00766948088377c0-16.249158812325565 15.443463166583877-31.23024284218538 31.692621978909447-31.23024284218538h86.32040508717449V178.47247372615186h-86.32040508717449c-16.250314760167374 0-31.692621978909447-11.5247999828474-31.692621978909447-27.77395879517297v-59.00651353304197c0-16.249158812325565 15.443463166583877-31.232554737868995 31.692621978909447-31.232554737868995h86.32040508717449v-118.01302706608394h710.2663716610505c32.556115016741636 0 56.81714832065351 28.235181984055224 56.81714832065351 60.735811504389986V770.2622832365521c0 32.61506835667397-24.259877356070046 57.278371509535766-56.81714832065351 57.278371509535766zM363.5150318759582 1.451777179183864H245.50200480987417v59.00535758520015h31.692621978909447c16.19136142023506 0 27.31273560629071 14.983395925543428 27.31273560629071 31.232554737868995V150.69504708745308c0 16.24800286448376-11.062420846123333 27.77280284733116-27.31273560629071 27.77280284733116h-31.692621978909447v59.00766948088377h31.692621978909447c16.19136142023506 0 27.31273560629071 14.98108402985981 27.31273560629071 31.23024284218538v59.00766948088377c0 16.249158812325565-11.062420846123333 27.77395879517297-27.31273560629071 27.77395879517297h-31.692621978909447v59.00651353304197h31.692621978909447c16.19136142023506 0 27.31273560629071 14.982239977701623 27.31273560629071 31.23139879002719v59.00651353304197c0 16.249158812325565-11.062420846123333 27.77395879517297-27.31273560629071 27.77395879517297h-31.692621978909447v59.00651353304197h31.692621978909447c16.19136142023506 0 27.31273560629071 14.98108402985981 27.31273560629071 31.23139879002719v59.00651353304197c0 16.250314760167374-11.062420846123333 27.77395879517297-27.31273560629071 27.77395879517297h-31.692621978909447v59.00535758520015h118.01302706608394v-767.0788961903365z"  horiz-adv-x="1024" />

    
    <glyph glyph-name="touxiangnan" unicode="&#58895;" d="M0.141983 384.062497C0.073991 101.327014 229.219017-127.929999 511.954501-127.99999c282.735484-0.064992 511.992496 229.077034 512.062487 511.812518V384.062497c0 282.735484-229.202019 511.937503-511.937503 511.937503s-511.937503-229.202019-511.937502-511.937503zM749.66848 48.555456c-23.944077 9.326861-52.09664 17.227897-83.321828 23.34915h-0.004999c-17.477866 3.427582-35.913616 6.30523-55.158266 8.536957-28.172561-7.571076-62.309393-12.010534-99.103902-12.010533-36.836503 0-71.007331 4.448457-99.19689 12.03953-20.735469-2.401707-40.524053-5.554322-59.196773-9.326861 1.655798-0.56993 3.35459-1.045872 5.039385-1.55681 0.560932-0.16498 1.120863-0.345958 1.676795-0.524936a93.250616 93.250616 0 0 1-1.676795 0.524936c-1.684794 0.510938-3.383587 0.98588-5.039385 1.55681-29.466403-5.965272-56.11415-13.520349-78.955361-22.378269-0.444946 1.285843-55.424234-29.353417-87.021377-60.85857C275.996306-84.430309 388.878526-127.875005 511.923504-127.875005c123.187961 0 236.193166 43.534685 324.528382 116.032834-31.574145 31.314177-86.317462 61.738463-86.783406 60.397627zM736.698064 451.989205c-6.500206 2.4577-13.716326 1.278844-20.842456-2.676673 0.630923 42.162853-5.608315 80.321194-18.054796 110.599498H326.038197C313.105776 528.434872 306.827542 488.465752 308.054393 444.303143c-7.144128 3.987513-14.384244 5.181367-20.909448 2.716669-18.496742-6.987147-24.211044-40.21909-12.765441-74.225939 11.444603-33.99685 35.71164-55.894176 54.203383-48.929027 16.644968-54.003407 41.352952-100.540726 69.725487-135.347476 4.983392-6.115253 10.07777-11.87455 15.262137-17.243895v-90.721925c-0.229972-0.029996-0.459944-0.059993-0.689915-0.07999 28.189559-7.591073 62.359387-12.03953 99.198889-12.03953 36.794508 0 70.931341 4.438458 99.103902 12.010533-0.305963 0.033996-0.604926 0.073991-0.910889 0.108987v90.68193c5.219363 5.399341 10.348737 11.198633 15.362124 17.352881 28.312544 34.742759 52.972533 81.17609 69.599504 135.038515 0.495939 1.601804 44.020626 0 54.22838 54.14239 11.449602 34.004849 5.7353 67.235792-12.764442 74.221939zM697.801812 558.161243s-2.240726-47.307225 18.054796-115.366916c0 0 88.671175 257.661545-77.98148 257.661545 0 0-431.578313 150.059681-329.816736-262.886907 0 0 2.853652-11.501596 7.913034-20.88645C384.34008 517.812169 610.813432 485.053168 697.801812 558.161243zM321.011811-37.983979h92.541702v-15.822069h-92.541702v15.822069zM511.595544 68.441028s21.199412-35.697642 73.906978-46.140367c0 0 27.131688 36.062597 25.194924 58.150901l-99.101902-12.010534zM511.54555 68.43103s-21.196412-35.698642-73.900978-46.146367c0 0-27.134687 36.063597-25.202923 58.1569l99.103901-12.010533zM502.273682 42.040251c-0.007999-5.148371 4.158492-9.326861 9.305864-9.33686 5.148371-0.009999 9.331861 4.152493 9.34186 9.302865v0.033995c0 5.145372-4.17349 9.322862-9.324862 9.322862-5.149371 0-9.322862-4.17849-9.322862-9.322862zM502.225688 6.271618c0-5.148371 4.17349-9.321862 9.319862-9.321862 5.151371 0 9.324862 4.17349 9.324862 9.321862 0 5.144372-4.17349 9.316863-9.324862 9.316863-5.146372 0-9.319862-4.172491-9.319862-9.316863zM502.225688-30.126938a9.323862 9.323862 0 0 1 18.644724 0c0 5.144372-4.17349 9.316863-9.324862 9.316862-5.146372 0-9.319862-4.17349-9.319862-9.316862z"  horiz-adv-x="1024" />

    
    <glyph glyph-name="gaojingguanli" unicode="&#58882;" d="M528.647314 447.331474c0.22528-1.339977 0.168229-2.956434-0.166765-4.852297a29.031863 29.031863 0 0 0-1.670583-5.770971 25.191863 25.191863 0 0 0-2.845257-5.272137c-1.117623-1.562331-2.342034-2.677029-3.682012-3.347018-1.338514-0.668526-2.5088-1.00352-3.513783-1.00352s-2.11968 0.222354-3.344091 0.669989c-1.114697 0.333531-2.510263 0.640731-4.182309 0.920137a19.491109 19.491109 0 0 1-5.102445 0.165303 24.634514 24.634514 0 0 1-5.187292-1.086903 10.11712 10.11712 0 0 1-4.43392-2.845257c-2.677029-2.788206-4.237897-5.968457-4.685531-9.537829-0.447634-3.567909 0.055589-6.969051 1.50528-10.203428 1.11616-2.23232 0.947931-4.463177-0.50176-6.692572-0.668526-0.892343-1.727634-1.813943-3.177326-2.761874a35.51232 35.51232 0 0 0-4.767451-2.593646 29.669669 29.669669 0 0 0-5.438903-1.840274c-1.897326-0.446171-3.567909-0.669989-5.0176-0.669988-1.004983 0-1.952914 0.392046-2.845257 1.171748-0.892343 0.779703-1.50528 1.61792-1.840275 2.510263h-0.168228c-1.227337 3.458194-3.319223 6.439497-6.274195 8.952686-2.956434 2.507337-6.385371 3.761006-10.289737 3.761005-3.791726 0-7.222126-1.253669-10.289737-3.761005-3.067611-2.511726-5.213623-5.438903-6.44096-8.78592-0.557349-1.338514-1.394103-2.312777-2.5088-2.925715-1.11616-0.6144-2.343497-0.9216-3.682011-0.9216-1.560869 0-3.31776 0.279406-5.270675 0.836755a48.771657 48.771657 0 0 0-5.855817 2.091885 28.11904 28.11904 0 0 0-5.270674 2.92864c-1.560869 1.11616-2.732617 2.230857-3.513783 3.345555-0.557349 0.779703-0.863086 1.701303-0.920137 2.761874-0.055589 1.057646 0.362789 2.536594 1.255131 4.430994 1.225874 2.567314 1.701303 5.494491 1.42336 8.78592-0.277943 3.288503-1.701303 6.329783-4.267154 9.116526a10.876343 10.876343 0 0 1-5.689051 3.263634c-2.229394 0.500297-4.350537 0.69632-6.357577 0.58368-2.342034-0.111177-4.739657-0.557349-7.192869-1.338514-1.560869-0.447634-3.1232-0.334994-4.684069 0.333531-1.227337 0.447634-2.369829 1.478949-3.4304 3.096869a34.402011 34.402011 0 0 0-2.843794 5.35552 32.8704 32.8704 0 0 0-1.92512 6.022583c-0.444709 2.062629-0.557349 3.763931-0.333531 5.103908 0.333531 2.453211 1.449691 4.015543 3.347017 4.682606 3.345554 1.338514 6.356114 3.541577 9.034606 6.609189 2.677029 3.067611 4.015543 6.496549 4.015542 10.289737 0 3.904366-1.338514 7.305509-4.015542 10.206354-2.678491 2.899383-5.689051 5.020526-9.034606 6.357577-1.004983 0.334994-1.841737 1.143954-2.510263 2.42688-0.669989 1.281463-1.004983 2.593646-1.004983 3.93216 0 1.449691 0.222354 3.067611 0.669989 4.852297a33.470171 33.470171 0 0 0 1.756891 5.184366 27.889371 27.889371 0 0 0 2.5088 4.602149c0.947931 1.395566 1.980709 2.42688 3.095406 3.095405 0.892343 0.557349 1.756891 0.781166 2.593646 0.669989a15.082057 15.082057 0 0 0 2.760411-0.669989c3.347017-1.338514 6.831543-1.755429 10.456503-1.253668 3.62496 0.50176 6.831543 2.090423 9.621211 4.768914 1.338514 1.338514 2.31424 2.984229 2.927177 4.93568 0.612937 1.952914 1.00352 3.876571 1.170286 5.772434 0.168229 1.895863 0.168229 3.62496 0 5.185829a63.8464 63.8464 0 0 1-0.418377 3.345554 17.963886 17.963886 0 0 0-0.585143 2.342035c-0.166766 0.892343-0.083383 1.674971 0.251612 2.343497 0.668526 1.560869 1.866606 2.927177 3.595702 4.098925a28.11904 28.11904 0 0 0 5.605669 2.927178 36.49536 36.49536 0 0 0 5.855817 1.756891c1.895863 0.392046 3.402606 0.586606 4.517303 0.586606 1.451154 0 2.593646-0.473966 3.4304-1.42336 0.836754-0.946469 1.421897-1.923657 1.756891-2.927177 1.227337-3.012023 3.234377-5.661257 6.022583-7.947703 2.788206-2.286446 6.078171-3.4304 9.87136-3.4304 3.904366 0 7.361097 1.088366 10.37312 3.262171 3.013486 2.175269 5.13024 4.93568 6.357577 8.281234 0.446171 0.892343 1.143954 1.81248 2.091886 2.760412 0.947931 0.949394 1.923657 1.42336 2.92864 1.42336 1.560869 0 3.262171-0.222354 5.102446-0.668526a32.826514 32.826514 0 0 0 5.435977-1.841737c1.784686-0.779703 3.431863-1.784686 4.937143-3.012023 1.50528-1.225874 2.706286-2.564389 3.595703-4.015543 0.560274-0.892343 0.72704-1.868069 0.503223-2.927177-0.222354-1.060571-0.444709-1.81248-0.669989-2.258651-1.449691-3.234377-1.8944-6.636983-1.338514-10.204892 0.557349-3.569371 2.175269-6.692571 4.852297-9.3696 2.677029-2.678491 5.965531-4.155977 9.87136-4.43392s7.527863 0.362789 10.87488 1.923657c0.892343 0.557349 1.980709 0.781166 3.262171 0.669989 1.281463-0.111177 2.369829-0.612937 3.262172-1.50528 1.673509-1.560869 3.148069-3.93216 4.430994-7.110949a40.307566 40.307566 0 0 0 2.593646-9.621211c0.223817-1.895863-0.08192-3.373349-0.918675-4.43392-0.838217-1.059109-1.701303-1.756891-2.593645-2.091886-3.458194-1.225874-6.413166-3.374811-8.86784-6.44096-2.454674-3.066149-3.682011-6.552137-3.682012-10.456503 0-3.791726 1.031314-7.109486 3.095406-9.954742 2.062629-2.845257 4.768914-4.878629 8.113006-6.105966 0.782629-0.447634 1.449691-0.892343 2.009965-1.338514a7.504457 7.504457 0 0 0 2.510263-3.847315z m-77.796205-15.060114c5.020526 0 9.75872 0.949394 14.220434 2.845257 4.463177 1.897326 8.339749 4.517303 11.626788 7.86432 3.291429 3.345554 5.883611 7.222126 7.780938 11.626789 1.8944 4.404663 2.842331 9.117989 2.842331 14.137051 0 5.020526-0.947931 9.730926-2.842331 14.138514-1.897326 4.406126-4.489509 8.254903-7.780938 11.544869-3.288503 3.291429-7.163611 5.882149-11.626788 7.779474-4.461714 1.895863-9.201371 2.845257-14.220434 2.845257s-9.732389-0.947931-14.138515-2.845257-8.254903-4.488046-11.544868-7.779474c-3.291429-3.289966-5.883611-7.138743-7.779475-11.544869-1.895863-4.406126-2.845257-9.117989-2.845257-14.138514 0-5.019063 0.949394-9.732389 2.845257-14.137051 1.895863-4.406126 4.489509-8.282697 7.779475-11.626789 3.289966-3.34848 7.138743-5.968457 11.544868-7.86432 4.406126-1.895863 9.117989-2.845257 14.138515-2.845257zM420.663589 697.952549c2.769189 4.844983 1.022537 10.708114-3.781486 13.133531-4.849371 2.758949-10.722743 0.674377-13.494857-3.439177l-12.419657-21.76 16.938422-9.637303 12.757578 21.702949zM268.937509 676.191086l16.939885 9.641691-12.75904 21.757074c-1.749577 2.7648-4.520229 4.509989-7.621485 4.849372-1.756891 0-3.7888-0.339383-5.535452-1.353143-4.461714-2.7648-6.214217-8.288549-3.447954-13.133531l12.424046-21.761463zM471.089737 641.076663c4.179383 2.362514 5.933349 8.225646 3.165623 13.075017-1.749577 2.760411-4.514377 4.5056-7.621486 4.844983-1.749577 0-3.787337 0-5.532525-1.007909l-21.795109-12.741485 9.654857-16.912092 22.12864 12.741486zM348.16 722.47296h-0.052663c0 5.523749-4.518766 9.641691-9.659246 9.641691-5.535451 0-9.992777-4.11648-9.992777-9.641691v-25.20064H348.16v25.20064zM356.995657 462.886034h-111.26784c-4.501211 0-8.010606-3.505006-8.010606-8.001828v-9.61536c0-1.255131 0.314514-2.561463 0.943543-3.505006h-7.069988c-4.5056 0-8.013531-3.500617-8.013532-7.99744v-9.619749c0-4.496823 3.506469-7.99744 8.013532-7.99744h138.396525c-7.928686 13.826926-12.601051 29.7472-12.991634 46.736823zM237.882514 644.849371l-22.134491 12.741486c-1.016686 0.674377-2.42688 1.01376-3.447954 1.01376-3.782949 0.334994-7.620023-1.354606-9.654858-4.849371-2.766263-4.847909-1.353143-10.368731 3.445029-13.133532l22.137417-12.741485 9.654857 16.969142zM429.70112 560.454217v16.416183c0 49.997531-40.823954 90.359223-90.912183 90.359223-50.14528 0-90.909257-40.361691-90.909257-90.359223v-95.550903h110.390126c6.290286 38.262491 34.564389 69.102446 71.431314 79.13472z"  horiz-adv-x="1024" />

    
    <glyph glyph-name="gaojingguanli1" unicode="&#58883;" d="M986.979474 46.982583c0.6656-3.959954 0.500297-8.740571-0.492983-14.34624-0.98304-5.605669-2.633143-11.291794-4.93568-17.061303-2.315703-5.770971-5.112686-10.961189-8.411428-15.580891-3.306057-4.616777-6.919314-7.912594-10.883657-9.894766-3.957029-1.974857-7.415223-2.963749-10.387749-2.963749s-6.269806 0.658286-9.890377 1.980709c-3.295817 0.98304-7.416686 1.892937-12.361143 2.720914a57.929143 57.929143 0 0 1-15.086446 0.490057 72.870766 72.870766 0 0 1-15.330742-3.210971 29.963703 29.963703 0 0 1-13.108663-8.411429c-7.914057-8.240274-12.526446-17.642057-13.847406-28.195108-1.323886-10.545737 0.160914-20.598491 4.447086-30.159726 3.301669-6.601874 2.801371-13.193509-1.4848-19.785143-1.97632-2.637531-5.105371-5.361371-9.391543-8.164206-4.287634-2.799909-8.986331-5.352594-14.094629-7.665371a87.552 87.552 0 0 0-16.078263-5.438903c-5.607131-1.318034-10.5472-1.980709-14.830445-1.980708-2.975451 0-5.77536 1.158583-8.412892 3.465508-2.636069 2.304-4.445623 4.78208-5.43744 7.418149h-0.500297c-3.623497 10.222446-9.808457 19.037623-18.54464 26.464548-8.743497 7.412297-18.873783 11.119177-30.4128 11.119177-11.209874 0-21.351863-3.705417-30.421577-11.119177-9.069714-7.426926-15.412663-16.079726-19.040549-25.974491-1.651566-3.954103-4.122331-6.834469-7.418148-8.649874-3.300206-1.819794-6.926629-2.72384-10.880732-2.72384-4.616777 0-9.811383 0.826514-15.580891 2.475154a145.195886 145.195886 0 0 0-17.308526 6.182034c-5.773897 2.475154-10.965577 5.362834-15.580891 8.657189-4.616777 3.298743-8.076434 6.593097-10.387749 9.888914-1.647177 2.308389-2.551223 5.030766-2.717988 8.165669-0.162377 3.126126 1.070811 7.497143 3.708343 13.098422 3.626423 7.589303 5.029303 16.243566 4.205714 25.973029-0.823589 9.720686-5.029303 18.711406-12.611292 26.95168-4.615314 4.944457-10.220983 8.164206-16.818468 9.647543-6.591634 1.480411-12.858514 2.05824-18.793326 1.729097-6.925166-0.32768-14.012709-1.650103-21.265554-3.955566-4.615314-1.322423-9.232091-0.990354-13.847406 0.984503-3.629349 1.32096-7.005623 4.371017-10.140526 9.15456-3.13344 4.780617-5.934811 10.05568-8.40704 15.828114a97.28 97.28 0 0 0-5.691977 17.804435c-1.315109 6.098651-1.645714 11.125029-0.985965 15.086445 0.985966 7.252846 4.284709 11.866697 9.89184 13.843018 9.89184 3.954103 18.793326 10.469669 26.707382 19.53792 7.912594 9.069714 11.869623 19.205851 11.869623 30.415725 0 11.54048-3.957029 21.59616-11.869623 30.165577-7.914057 8.573806-16.815543 14.842149-26.707382 18.799178-2.966674 0.988891-5.441829 3.382126-7.418149 7.169462-1.979246 3.791726-2.968137 7.666834-2.968137 11.6224 0 4.286171 0.658286 9.071177 1.980708 14.344778a98.245486 98.245486 0 0 0 5.193143 15.32928c2.14016 4.948846 4.612389 9.48224 7.416686 13.601645 2.801371 4.123794 5.852891 7.172389 9.150171 9.148709 2.636069 1.64864 5.193143 2.311314 7.665372 1.979246 2.470766-0.330606 5.19168-0.988891 8.16128-1.979246 9.893303-3.954103 20.194743-5.188754 30.908708-3.708343 10.715429 1.4848 20.194743 6.180571 28.440869 14.101943 3.95264 3.951177 6.838857 8.81664 8.6528 14.586148s2.966674 11.457097 3.462583 17.062766c0.495909 5.604206 0.495909 10.716891 0 15.332206-0.495909 4.616777-0.906971 7.912594-1.237577 9.890377-0.658286 1.980709-1.236114 4.287634-1.729097 6.923703-0.497371 2.636069-0.250149 4.948846 0.741668 6.92224 1.977783 4.61824 5.520823 8.657189 10.632046 12.118308s10.636434 6.3488 16.56832 8.6528c5.937737 2.311314 11.70432 4.038949 17.309988 5.193143 5.605669 1.15712 10.05568 1.734949 13.35296 1.734949 4.29056 0 7.668297-1.401417 10.141989-4.207177 2.472229-2.798446 4.204251-5.686126 5.194606-8.6528 3.626423-8.901486 9.561234-16.733623 17.802971-23.49056 8.241737-6.761326 17.966811-10.140526 29.182537-10.140526 11.544869 0 21.757074 3.21536 30.660023 9.643154 8.905874 6.429257 15.16544 14.589074 18.796252 24.480915 1.316571 2.638994 3.383589 5.359909 6.186422 8.158354 2.798446 2.80576 5.6832 4.207177 8.6528 4.207177 4.610926 0 9.644617-0.659749 15.08352-1.977783a96.905509 96.905509 0 0 0 16.072412-5.444754 62.932114 62.932114 0 0 0 14.593463-8.900023c4.450011-3.626423 7.995977-7.584914 10.62912-11.86816 1.655954-2.64192 2.148937-5.520823 1.486263-8.657189-0.656823-3.131977-1.316571-5.356983-1.980709-6.675017-4.286171-9.562697-5.602743-19.61984-3.95264-30.169965 1.645714-10.550126 6.426331-19.780754 14.34624-27.694812 7.909669-7.91552 17.630354-12.283611 29.17376-13.110126 11.546331-0.822126 22.255909 1.072274 32.150674 5.687589 2.637531 1.64864 5.851429 2.311314 9.64608 1.979246 3.7888-0.330606 7.005623-1.811017 9.647543-4.447086 4.944457-4.61824 9.302309-11.623863 13.09696-21.021257 3.793189-9.395931 6.353189-18.875246 7.668297-28.437943 0.662674-5.607131-0.238446-9.972297-2.715063-13.1072-2.476617-3.130514-5.02784-5.193143-7.668297-6.182034-10.223909-3.626423-18.955703-9.976686-26.2144-19.043475-7.252846-9.063863-10.880731-19.369691-10.880731-30.913097 0-11.205486 3.048594-21.013943 9.153097-29.423908 6.097189-8.411429 14.094629-14.425234 23.980617-18.050195 2.317166-1.323886 4.286171-2.64192 5.942126-3.957028 3.622034-2.972526 6.100114-6.762789 7.409371-11.37664z m-229.974308-44.516206c14.842149 0 28.850469 2.807223 42.039588 8.408503 13.194971 5.607131 24.652069 13.35296 34.371292 23.250651 9.729463 9.888914 17.394834 21.347474 23.001965 34.372755 5.60128 13.019429 8.404114 26.95168 8.404115 41.787977 0 14.840686-2.802834 28.768549-8.404115 41.792366-5.607131 13.023817-13.27104 24.40192-23.001965 34.126994-9.720686 9.726537-21.177783 17.388983-34.371292 22.996114-13.190583 5.605669-27.19744 8.408503-42.039588 8.408503-14.839223 0-28.767086-2.802834-41.787977-8.408503-13.02528-5.607131-24.404846-13.268114-34.128458-22.996114-9.725074-9.725074-17.394834-21.103177-22.997577-34.126994-5.604206-13.023817-8.408503-26.953143-8.408503-41.792366 0-14.83776 2.804297-28.768549 8.408503-41.787977 5.602743-13.02528 13.27104-24.48384 22.997577-34.372755 9.723611-9.897691 21.103177-17.64352 34.128458-23.250651 13.020891-5.602743 26.950217-8.408503 41.787977-8.408503zM667.77088 787.840731c8.184686 14.319909 3.025189 31.65184-11.179154 38.821303-14.334537 8.158354-31.697189 1.993874-39.893577-10.166857l-36.713326-64.32768 50.070674-28.486217 37.715383 64.159451zM219.255954 723.513051l50.076526 28.500846-37.715383 64.313052c-5.174126 8.17152-13.364663 13.33248-22.530926 14.336-5.194606 0-11.201097-1.00352-16.362057-3.999452-13.187657-8.170057-18.372023-24.501394-10.193188-38.821303l36.725028-64.329143zM816.837486 619.713097c12.350903 6.982217 17.54112 24.315611 9.356434 38.650149-5.174126 8.158354-13.345646 13.319314-22.535314 14.321371-5.172663 0-11.19232 0-16.351817-2.981303l-64.434469-37.664183 28.543269-49.993142 65.421897 37.667108zM453.446217 860.32384h-0.155063c0 16.3328-13.360274 28.502309-28.553508 28.502309-16.36352 0-29.538011-12.169509-29.538012-28.502309V785.832229h58.248046V860.32384zM479.565531 92.961646H150.65088c-13.307611 0-23.682194-10.358491-23.682194-23.651475v-28.424777c0-3.714194 0.930377-7.571749 2.789668-10.359954H108.86144c-13.317851 0-23.68512-10.345326-23.68512-23.639771v-28.43648c0-13.292983 10.367269-23.636846 23.68512-23.636846h409.111406c-23.442286 40.869303-37.256046 87.932343-38.407315 138.149303zM127.45728 630.864457l-65.4336 37.664183c-3.004709 1.993874-7.173851 2.998857-10.190263 2.998857-11.183543 0.987429-22.526537-4.005303-28.541806-14.337463-8.178834-14.331611-4.002377-30.649783 10.184412-38.821303l65.442377-37.664182 28.53888 50.159908zM694.488503 381.380023v48.528823c0 147.796846-120.675474 267.108937-268.742949 267.108937-148.23424 0-268.735634-119.312091-268.735634-267.108937v-282.457235h326.322469c18.592914 113.113966 102.171794 204.274834 211.156114 233.928412z"  horiz-adv-x="1024" />

    
    <glyph glyph-name="jiankong1" unicode="&#58884;" d="M512.10740950529 647.1532879604492C366.4601203320781 647.1532879604492 247.98743599723093 528.6806036256021 247.98743599723093 383.0333144523901c0-111.38365698570854 69.49394992261658-206.65588817792008 167.2365997364977-245.43071958760265l1.2889140634797513-0.6444570317398757c10.95576953957789-5.155656253919005 81.52381451509426-35.01549872453324 186.570310688694-1.6111425793496887 5.048246748629026 1.8259615899296473 10.096493497258052 3.866742190439253 15.037330740597099 6.01493229623884 92.90922207583208 41.03043102077208 158.10679178684953 133.7248340860242 158.10679178684953 241.67138690245338C776.227383013349 528.6806036256021 657.7546986785019 647.1532879604492 512.10740950529 647.1532879604492z m-19.870758478646163-94.7351836657617c5.907522790948859 5.907522790948859 14.178054698277268 9.344626960228197 22.44858660560567 9.344626960228197 8.270531907328404 0 16.54106381465681-3.437104169279336 22.44858660560567-9.344626960228197 5.907522790948859-5.907522790948859 9.344626960228197-14.178054698277268 9.344626960228197-22.44858660560567 0-8.270531907328404-3.437104169279336-16.54106381465681-9.344626960228197-22.44858660560567-5.907522790948859-5.907522790948859-14.178054698277268-9.344626960228197-22.44858660560567-9.344626960228197-8.270531907328404 0-16.54106381465681 3.437104169279336-22.44858660560567 9.344626960228197-5.907522790948859 5.907522790948859-9.344626960228197 14.178054698277268-9.344626960228197 22.44858660560567 0.10740950528997925 8.377941412618384 3.544513674569317 16.64847331994679 9.344626960228197 22.44858660560567z m19.870758478646163-348.75866367656283c-75.50888221885543 0-137.05452875001356 61.43823702586813-137.05452875001356 137.05452875001356 0 75.50888221885543 61.43823702586813 137.05452875001356 137.05452875001356 137.05452875001356 75.50888221885543 0 137.05452875001356-61.43823702586813 137.05452875001356-137.05452875001356 0-75.61629172414541-61.54564653115813-137.05452875001356-137.05452875001356-137.05452875001356zM511.4629524735501 337.276865198859m-99.35379239323083 0a99.35379239323083 99.35379239323083 0 1 1 198.70758478646167 0 99.35379239323083 99.35379239323083 0 1 1-198.70758478646167 0Z"  horiz-adv-x="1024" />

    
    <glyph glyph-name="kefu" unicode="&#58885;" d="M515.53 125.769c4.367 0 8.813 0.267 13.285 0.8 42.89 5.147 79.31 35.125 92.754 76.438 1.013 3.093-0.452 6.4-3.407 7.76-2.929 1.36-6.47 0.187-8.12-2.586-0.16-0.267-17.199-27.791-83.543-36.752-9.93-1.334-19.594-2.028-28.753-2.028-46.483 0.027-67.196 17.55-67.382 17.71-2.343 2.08-5.91 2.133-8.306 0.106-2.423-2.027-2.982-5.547-1.332-8.242 20.234-32.804 56.547-53.206 94.804-53.206zM872.253 536.922c-0.586 0-1.119-0.107-1.677-0.107-38.87 168.291-187.4 293.83-365.481 293.83-182.98 0-334.917-132.474-368.596-307.725-32.746-5.894-57.666-34.672-57.666-69.477v-139.301c0-39.045 31.31-70.703 69.966-70.703 21.805 0 41.053 10.294 53.859 26.11 30.934-81.822 93.922-147.803 173.627-182.61 0.191 0.416 1.7 3.349 3.514 5.686 1.258 1.62 2.66 2.952 3.868 2.952 1.252 0 2.397-0.453 3.381-1.147-18.45 13.736-85.087 84.333-99.516 182.853-6.337 43.367 26.143 85.933 63.975 92.974 60.727 11.309 121.135 24.19 181.862 35.285 38.603 7.041 64.987 28.217 81.12 63.475 3.78 8.242 9.239 24.91 11.742 48.94 0.665 3.574 3.593 6.322 7.348 6.322 2.503 0 4.633-1.28 6.044-3.12l1.677 1.04c23.934-34.752 71.403-111.696 78.218-192.828 7.828-92.76 3.461-156.29-67.542-221.286-0.08-0.08-0.186-0.186-0.293-0.267a5.821 5.821 0 0 1-1.57-3.974c0-2 1.065-3.707 2.609-4.747 0.585-0.24 1.172-0.56 1.757-0.8 0.479-0.106 0.931-0.267 1.411-0.267s0.906 0.16 1.331 0.267c1.013 0.533 1.97 1.147 2.956 1.68 71.802 39.553 126.885 105.616 152.336 185.067 10.303-15.308 26.436-26.323 45.18-30.164-30.058-136.713-151.991-222.272-303.05-235.26-9.053 22.456-31.336 38.405-57.507 38.405-34.183 0-61.898-27.07-61.898-60.436s27.714-60.408 61.898-60.408c27.555 0 50.638 17.709 58.651 42.032 174.86 14.216 315.03 118.15 344.29 279.64 25.85 10.803 44.007 36.166 44.007 65.77V465.579c-0.002 39.392-32.164 71.344-71.831 71.344z m-64.508-40.486c-45.605 123.537-163.785 211.79-302.81 211.79-138.44 0-256.193-87.506-302.224-210.243-2.29 2.8-4.979 5.2-7.615 7.628 26.064 149.568 154.787 263.291 309.999 263.291 154.467 0 282.79-112.602 309.705-261.131-2.662-3.574-5.112-7.309-7.055-11.335zM376.292 86.936l-0.008 0.003c-0.029-0.064-0.03-0.072 0.008-0.003z"  horiz-adv-x="1024" />

    
    <glyph glyph-name="yiban" unicode="&#58912;" d="M512 832c-247.19872 0-448-200.80128-448-448s200.80128-448 448-448 448 200.80128 448 448-200.80128 448-448 448zM288 512c0 35.99872 28.8 64 64 64s64-28.8 64-64-28.8-64-64-64-64 28.8-64 64z m384-320h-320c-17.60256 0-32 14.40256-32 32s14.40256 32 32 32h320c17.60256 0 32-14.40256 32-32s-14.39744-32-32-32z m0 256c-35.2 0-64 28.8-64 64s28.8 64 64 64 64-28.8 64-64-28.8-64-64-64z"  horiz-adv-x="1024" />

    
    <glyph glyph-name="manyi1" unicode="&#58913;" d="M512 832c-247.19872 0-448-200.80128-448-448s200.80128-448 448-448 448 200.80128 448 448-200.80128 448-448 448z m160-256.79872c35.2 0 64-28.8 64-64s-28.8-64-64-64-64 28.8-64 64c0 35.99872 28.8 64 64 64z m-320 0.79872c35.2 0 64-28.8 64-64s-28.8-64-64-64-64 28.8-64 64 28.8 64 64 64z m383.20128-288.79872c-22.4-47.20128-53.60128-86.4-91.20256-114.40128-39.99744-29.59872-85.59616-44.8-131.99872-44.8s-92.00128 15.20128-131.99872 45.59872c-36.80256 28.00128-68.80256 67.2-91.20256 114.40128-7.19872 16-0.79872 34.40128 15.20128 42.39872 15.20128 7.19872 34.40128 0.79872 42.39872-15.20128 18.40128-37.60128 43.20256-68.80256 72.00256-90.39872S479.20128 192 512 192s65.60256 11.20256 93.59872 32c28.8 21.60128 54.4 52.80256 72.00256 90.39872 7.19872 16 26.39872 23.19872 42.39872 15.20128 16-7.19872 23.19872-26.39872 15.20128-42.39872z"  horiz-adv-x="1024" />

    
    <glyph glyph-name="yiban1" unicode="&#58928;" d="M512.8 896C230 896 0.8 666.8 0.8 384s229.2-512 512-512 512 229.2 512 512S795.6 896 512.8 896zM330 542.5c0 35 28.4 63.4 63.4 63.4s63.4-28.4 63.4-63.4-28.4-63.4-63.4-63.4c-35.1 0-63.4 28.4-63.4 63.4z m292.5-298.2H403.1c-16.6 0-30 13.4-30 30s13.4 30 30 30h219.4c16.6 0 30-13.4 30-30s-13.4-30-30-30z m9.8 234.8c-35 0-63.4 28.4-63.4 63.4s28.4 63.4 63.4 63.4 63.4-28.4 63.4-63.4-28.4-63.4-63.4-63.4z"  horiz-adv-x="1024" />

    
    <glyph glyph-name="chaping" unicode="&#58954;" d="M870.144 573.824c-29.44 42.88-67.072 80.384-112.64 115.328C599.296 798.976 406.272 793.6 323.2 675.712c-13.44-18.816-24.192-40.192-29.44-61.696-2.688-2.688-5.376-2.688-8.064-5.376-5.376-5.376-40.192-48.256-29.44-144.768 13.44-123.392 93.824-276.224 241.28-453.12 5.376-5.376 13.44-10.752 21.504-10.752 5.376 0 10.752 2.688 16.128 5.376 10.752 8.064 13.44 26.88 2.688 37.504-145.024 177.024-201.344 302.976-222.72 386.176 29.44-61.696 77.696-118.016 142.08-163.584 48.256-32.128 99.2-56.32 147.456-67.072 32.128-8.064 59.008 112.64 59.008 112.64s134.016-10.752 155.52 21.504c21.504 32.128-32.128 155.52-32.128 155.52s101.888 58.88 83.072 85.76z m0 0M819.2 190.336c-5.376 0-142.08-5.376-257.408-118.016-10.752-10.752-10.752-26.752 0-37.504 5.376-5.376 13.44-8.064 18.816-8.064 5.376 0 13.44 2.688 18.816 8.064 101.888 96.512 219.904 101.888 222.592 101.888 16.128 0 26.752 13.44 26.752 26.752-2.816 16.128-16.128 26.88-29.568 26.88z m-640.896 0c-16.128 0-26.752-10.752-26.752-26.752s10.752-26.752 26.752-26.752c0 0 120.704-5.376 222.592-101.888 5.376-5.376 10.752-8.064 18.816-8.064 8.064 0 13.44 2.688 18.816 8.064 10.752 10.752 10.752 26.752 0 37.504-118.016 112.512-254.848 117.888-260.224 117.888z m0 0"  horiz-adv-x="1024" />

    
    <glyph glyph-name="yewu" unicode="&#58937;" d="M61.44 584.192v-450.048l433.664-250.368v450.048zM514.56 868.864L80.896 618.496l433.664-250.368 433.664 250.368zM534.016 333.824v-450.048l433.664 250.368V584.192z"  horiz-adv-x="1024" />

    
    <glyph glyph-name="dev-palm-inform" unicode="&#58886;" d="M783.691776 640c-22.188032 0-43.507712-22.9888-43.507712-51.2v-230.402048c0-14.129152-0.256-25.597952-11.368448-25.597952-11.116544 0-11.3664 11.4688-11.3664 25.597952V742.4c0 28.2112-26.843136 51.2-49.025024 51.2-22.188032 0-49.027072-22.9888-49.027072-51.2v-332.8c0-14.133248-0.260096-25.6-11.370496-25.6-11.112448 0-9.089024 11.4688-9.089024 25.6V793.6c0 28.2112-29.118464 51.2-51.304448 51.2-22.183936 0-50.16576-22.9888-50.16576-51.2v-384c0-14.133248 0.884736-25.6-10.22976-25.6-11.1104 0-11.364352 11.4688-11.364352 25.6V742.4c0 28.2112-21.323776 51.2-43.507712 51.2-22.188032 0-45.78304-22.9888-45.78304-51.2v-400.023552c0-34.203648 1.171456-54.171648-14.534656-59.240448-15.661056-5.0688-30.11584 7.4752-42.958848 37.3248L266.24 458.9568c-0.079872 0.1536-0.159744 0.3584-0.239616 0.512-5.199872 12.0832-13.613056 20.6848-23.638016 24.1664-9.424896 3.227648-19.204096 1.536-27.580416-4.864-18.601984-14.1824-25.769984-47.9232-15.663104-73.6768 0.043008-0.049152 0.043008-0.1024 0.079872-0.2048 0.243712-0.616448 25.327616-65.998848 106.940416-273.5616 41.59488-105.8816 80.726016-156.977152 106.20928-181.248 25.56928-24.32 42.520576-26.7264 44.089344-26.88h191.809536c64.581632 0 105.252864 68.913152 127.956992 126.6688 34.828288 88.578048 53.229568 212.942848 53.229568 359.733248h0.04096V588.8c0 28.2112-23.601152 51.2-45.78304 51.2z"  horiz-adv-x="1024" />

    
    <glyph glyph-name="tuopu" unicode="&#59197;" d="M861.091 154.182c-25.266 0-48.692-7.863-67.979-21.266L615.978 260.845c17.139 30.368 26.931 65.434 26.931 102.791 0 6.662-0.325 13.248-0.934 19.751l181.394 107.16c27.985-17.007 64.962-13.432 89.148 10.754 28.402 28.402 28.402 74.45 0 102.852s-74.45 28.402-102.852 0c-20.925-20.925-26.413-51.423-16.505-77.391L631.704 431.38c-16.666 48.783-50.83 89.45-95.007 114.527l32.27 161.346c2.315-0.222 4.66-0.345 7.033-0.345 40.167 0 72.728 32.561 72.728 72.727 0 40.166-32.561 72.727-72.728 72.727-40.166 0-72.727-32.561-72.727-72.727 0-20.549 8.536-39.093 22.238-52.319l-32.562-162.813c-18.861 5.578-38.825 8.587-59.495 8.587-39.358 0-76.175-10.865-107.631-29.745l-100.443 88.39c18.128 35.992 12.191 81.003-17.861 111.055-37.491 37.49-98.274 37.49-135.765 0s-37.49-98.274 0-135.765c33.554-33.554 85.755-37.052 123.228-10.543l93.177-81.996C248.611 476.387 224 422.889 224 363.636c0-64.399 29.072-121.999 74.798-160.421l-82.787-88.324c-15.209 10.118-33.465 16.018-53.102 16.018-53.02 0-96-42.981-96-96s42.98-96 96-96 96 42.981 96 96c0 16.457-4.144 31.945-11.441 45.483l90.638 96.701c28.599-14.647 61.009-22.911 95.348-22.911 61.593 0 116.973 26.588 155.298 68.91l171.761-124.049c-11.834-18.52-18.695-40.526-18.695-64.134 0-65.872 53.4-119.273 119.272-119.273 65.873 0 119.273 53.4 119.273 119.273 0.001 65.873-53.4 119.273-119.272 119.273z"  horiz-adv-x="1024" />

    
    <glyph glyph-name="yemian-yonghutouxiang" unicode="&#58944;" d="M0 384c0-281.6 230.4-512 512-512s512 230.4 512 512-230.4 512-512 512-512-230.4-512-512zM441.6 313.6c-147.2-64-192-102.4-211.2-115.2-25.6-25.6-44.8-115.2-57.6-192h672c-19.2 76.8-32 166.4-57.6 192-19.2 12.8-57.6 51.2-211.2 115.2H441.6zM582.4 441.6v-166.4c-38.4-51.2-102.4-44.8-147.2 0V441.6c6.4 89.6 147.2 89.6 147.2 0zM582.4 441.6v-108.8c-25.6-19.2-51.2-32-70.4-32-19.2 0-44.8 12.8-70.4 32V441.6c0 89.6 140.8 89.6 140.8 0zM435.2 313.6l-51.2-25.6 76.8-102.4 51.2 51.2-76.8 76.8zM588.8 313.6l51.2-25.6-76.8-102.4-51.2 51.2 76.8 76.8zM313.6 12.8h12.8v89.6l-12.8-89.6z m396.8 0h-12.8v89.6l12.8-89.6zM512 729.6c-243.2 0-153.6-294.4-140.8-313.6C390.4 384 473.6 320 512 320c38.4 0 121.6 64 140.8 89.6 12.8 25.6 102.4 320-140.8 320zM326.4 537.6c12.8 6.4 32-12.8 38.4-32 6.4-19.2 0-44.8-12.8-44.8-12.8-6.4-25.6 6.4-38.4 25.6-6.4 25.6 0 44.8 12.8 51.2z m371.2 0c-12.8 6.4-32-12.8-38.4-32-6.4-19.2 0-44.8 12.8-44.8 12.8-6.4 32 12.8 38.4 32 6.4 19.2 0 38.4-12.8 44.8zM403.2 627.2c-12.8-76.8-51.2-64-51.2-153.6-6.4 70.4-25.6 160 25.6 224 38.4 51.2 166.4 83.2 243.2 25.6 89.6-19.2 64-204.8 51.2-236.8-12.8 51.2-32 76.8-51.2 140.8-32-19.2-179.2-25.6-217.6 0z"  horiz-adv-x="1024" />

    
    <glyph glyph-name="dianzan_access" unicode="&#58887;" d="M884.875894 472.856747L646.970506 472.856747c92.185562 340.464205-63.516616 357.853247-63.516616 357.853247-65.993017 0-52.312436-52.182476-57.3031-60.881602 0-166.502152-176.849824-296.971645-176.849824-296.971645l0-472.171899c0-46.607504 63.516616-63.393819 88.433098-63.393819l357.452111 0c33.641191 0 61.036122 88.224344 61.036122 88.224344 88.434122 300.70569 88.434122 390.177444 88.434122 390.177444C944.657442 477.820805 884.875894 472.856747 884.875894 472.856747L884.875894 472.856747 884.875894 472.856747zM884.875894 472.856747M251.671415 472.700181L109.214912 472.700181c-29.420053 0-29.873378-28.89612-29.873378-28.89612l29.420053-476.202703c0-30.309306 30.361495-30.309306 30.361495-30.309306L262.420223-62.70794799999999c25.686009 0 25.458835 20.049638 25.458835 20.049638L287.879058 436.588729C287.879058 473.162716 251.671415 472.700181 251.671415 472.700181L251.671415 472.700181 251.671415 472.700181zM251.671415 472.700181"  horiz-adv-x="1024" />

    
    <glyph glyph-name="baobiao" unicode="&#58938;" d="M413.744 678.656h205.504s62 3.008 67.008 72.992v50s-6 65.504-82.496 65.504H416.256s-69.504 4.496-78.496-70.496v-48.496c-0.016-0.016 3.984-69.504 75.984-69.504zM816 804h-70.72v-98.8c0-44.192-35.808-80-80-80h-308c-44.192 0-80 35.808-80 80V804H208c-44.192 0-80-35.92-80-80.272v-742.672c0-44.32 35.808-80.256 80-80.256h608c44.192 0 80 35.936 80 80.256V723.728C896 768.064 860.192 804 816 804z m-79.728-701.92H287.728c-17.664 0-32 14.32-32 32 0 17.664 14.336 32 32 32h448.528c17.664 0 32-14.336 32-32 0.016-17.696-14.32-32-31.984-32z m0 196.128H287.728c-17.664 0-32 14.32-32 32 0 17.664 14.336 32 32 32h448.528c17.664 0 32-14.336 32-32 0.016-17.696-14.32-32-31.984-32z m0 196.112H287.728c-17.664 0-32 14.336-32 32s14.336 32 32 32h448.528c17.664 0 32-14.336 32-32s-14.32-32-31.984-32z"  horiz-adv-x="1024" />

    
    <glyph glyph-name="zujian" unicode="&#58985;" d="M554.823695 340.458727v-455.866851c0-10.544416 10.33967-15.765438 19.041373-10.544417l391.167132 227.88224C968.512881 103.772412 971.993562 108.993434 971.993562 112.576488V568.340966c0 10.544416-10.442043 15.765438-19.143746 10.544416l-391.064759-227.984612a11.875265 11.875265 0 0 1-6.961362-10.442043z m-93.876017 10.442043L69.780546 578.885382C61.078843 584.106404 50.6368 577.042669 50.6368 568.340966v-455.866851c0-5.221022 1.740341-8.701703 6.961362-10.544416l391.064759-227.88224c8.804076-5.221022 19.143746 1.740341 19.143746 10.544417V340.458727a11.875265 11.875265 0 0 1-6.858989 10.442043z m57.328865 64.904465l391.064759 227.88224a13.308487 13.308487 0 0 1 0 22.829173L518.378916 894.398887a14.741708 14.741708 0 0 1-12.182384 0L115.131773 666.516648a13.308487 13.308487 0 0 1 0-22.829173l391.064759-227.88224c3.480681-3.480681 6.961362-3.480681 12.182384 0z"  horiz-adv-x="1024" />

    
    <glyph glyph-name="changjiantou-copy" unicode="&#58931;" d="M530.205 893.725l0-946.631-36.409-1e-8 0 946.63100002 36.409-1e-8zM566.613 56.32000000000005l-54.613-182.045-54.613 182.045z"  horiz-adv-x="1024" />

    
    <glyph glyph-name="chulijieguo" unicode="&#58888;" d="M768.2 717.3H256.1c-35.2 0-63.7-28.8-63.7-64l-0.4-576.2 128 128h448.1c35.2 0 64 28.8 64 64V653.3c0.1 35.2-28.7 64-63.9 64z m-295.4-373l-34 34-11.3 11.3-90.5 90.5 45.3 45.3 90.5-90.5L642 604l45.3-45.3-214.5-214.4z"  horiz-adv-x="1024" />

    
    <glyph glyph-name="love" unicode="&#58900;" d="M744.5 520.3C695.9 435.8 596.7 353 531.8 320c-65 33-164.2 115.8-212.8 200.3h91.3c4.5 0 8.6 1.7 11.7 4.5l42.5 32.9 50.7-99.6c4.4-8.6 14.9-12 23.5-7.7 4.7 2.4 7.9 6.7 9 11.5l47.2 141.8 41.1-74.4c3.2-5.8 9.1-9.1 15.3-9.1h93.2v0.1zM531.8 714.2c-87.9 90.1-241.6 27.7-241.6-102.7 0-18.1 4.3-37.1 11.9-56.4h102.4L460 598c7.6 5.9 18.5 4.5 24.4-3.1 0.7-0.9 1.3-1.8 1.7-2.7l41.4-81.2 47.1 141.4c3 9.1 12.9 14.1 22 11.1 4.3-1.4 7.7-4.4 9.8-8.2l55.3-100.2h99.9c7.6 19.2 11.9 38.3 11.9 56.4-0.1 130.4-153.9 192.8-241.7 102.7zM614.9 187.39999999999998c28.5-8.2 56.1-27.3 50.2-61.5-3.9-22.7-21.2-41.8-45.2-42.4-92.9-2.2-130.9-6.3-189.5 20.5-26 11.9-41.2 36.1-51.9 62 101.4-63.9 123.2-56.4 239.9-53.6 7.9 0.2 18.4 6.3 18.4 18.3 0.1 27.9-21.1 32.9-60.5 40.2-33.9 6.2-62.6 4.9-87.9 27.7-86 77.4-164.7 90.6-265.3 44-28.7-13.3-56.3-30.3-83.8-45.9V55c37.8 12.6 80.3 28.5 118.2 37.9 16.6 4.1 31.6-0.5 46.7-8.5 99.8-53.1 104.9-52.6 217.5-71.6 14.9-2.5 28-2.1 42.4 2.4 141.6 43.7 153.6 48.5 296.7 138.2 46.7 29.3 18.2 76.8-31.6 56.5-8.7-3.5-17.4-7-26-10.5 4.8 16.2-18.7 27.4-42.1 18.7-5.2-2-10.9-4.5-17.2-7.5 1.9 17.5-21.8 28.4-55.1 14.9-7.9-3.3-57.1-30.6-73.9-38.1z"  horiz-adv-x="1024" />

    
    <glyph glyph-name="zhongzhimima" unicode="&#58889;" d="M384.700304 347.272948c0.155623 19.608511-11.04924 13.694833-19.452888 12.605471-8.248024-2.48997-10.893617-3.579331-11.04924-12.294224l-2.801216-292.260183c-0.155623-10.893617-5.291185-16.340426-11.360486-16.184802-6.069301 0-11.04924 5.913678-10.893617 16.496048l2.645593 268.449848c0.155623 16.807295-13.383587 30.657751-30.190882 30.813374 0 0-36.882675 5.291185-54.468085-3.890577-7.781155-4.046201-28.790274-40.928875-29.412766-49.021277-0.778116-8.092401 22.56535-53.68997 19.764134-58.669909-2.801216-5.135562-48.243161-38.283283-38.905775-55.401823 9.493009-17.118541 59.136778-59.914894 59.136778-71.897873 0-12.138602-74.076596-66.76231-78.900912-76.099696-5.913678-11.671733 30.035258-49.799392 42.485107-49.799392l129.478419-5.135562c16.807295-0.155623 30.657751 13.53921 30.813374 30.190881l3.112462 332.099696z m-45.753192 370.849848c-23.499088 23.965957-62.24924 24.432827-86.215197 0.778116-23.965957-23.499088-24.432827-62.24924-0.778116-86.215198 23.499088-23.965957 62.24924-24.432827 86.215198-0.933738 23.965957 23.810334 24.432827 62.404863 0.778115 86.37082z m96.797569-277.631611c-78.745289-77.189058-205.266869-75.944073-282.455927 2.801216S77.189058 648.559271 155.934347 725.748328s205.266869 75.944073 282.455927-2.801216 76.099696-205.111246-2.645593-282.455927zM753.838298 195.384802c-6.224924 4.357447-14.784195 2.801216-19.141641-3.579331l-13.53921-19.608511c-2.334347 11.204863-5.913678 21.942857-10.737994 32.369605-8.403647 18.207903-19.919757 34.392705-34.548328 48.243161-14.628571 13.694833-31.435866 24.432827-50.110639 31.59149-19.297264 7.469909-39.683891 10.893617-60.537386 10.271124-20.853495-0.622492-40.928875-5.291185-59.75927-14.006079-18.207903-8.403647-34.392705-19.919757-48.243161-34.548328-13.850456-14.628571-24.432827-31.435866-31.747113-50.110638-7.469909-19.297264-11.04924-39.683891-10.426747-60.537386 0.622492-20.853495 5.291185-40.928875 14.006079-59.759271 8.403647-18.207903 19.919757-34.392705 34.548328-48.243161 14.628571-13.850456 31.435866-24.432827 50.110638-31.747112 17.741033-6.847416 36.571429-10.426748 55.71307-10.426748h4.824316c32.058359 0.933739 62.404863 11.516109 87.927052 30.657751 6.069301 4.51307 7.314286 13.227964 2.801216 19.297264-4.51307 6.069301-13.227964 7.314286-19.297265 2.801216-21.009119-15.717933-45.908815-24.432827-72.209118-25.210942-33.925836-1.089362-66.295441 11.204863-91.039514 34.548328-24.744073 23.343465-38.905775 54.779331-39.995137 88.705167-1.089362 33.925836 11.204863 66.295441 34.548328 91.039514 23.343465 24.744073 54.779331 38.905775 88.705168 39.995137 33.925836 1.089362 66.295441-11.204863 91.039513-34.548329 19.297264-18.207903 32.213982-41.395745 37.349544-66.917933l-21.320364 14.628572c-6.224924 4.357447-14.784195 2.801216-19.141642-3.579332-4.357447-6.224924-2.801216-14.784195 3.579332-19.141641l47.931914-32.992097c2.334347-1.711854 5.135562-2.48997 7.781155-2.48997 4.357447 0 8.714894 2.0231 11.360487 5.913678l32.992097 47.931915c4.51307 6.691793 2.956839 15.251064-3.423708 19.452887z"  horiz-adv-x="1024" />

    
    <glyph glyph-name="quanxian" unicode="&#58890;" d="M497.777778 46.157576c-2.456566-0.258586-4.137374-0.517172-5.818182-0.517172-46.416162-0.387879-92.70303 2.19798-138.989899 6.593939-33.616162 3.232323-67.361616 6.593939-100.848485 10.989899-22.884848 3.10303-45.640404 8.016162-68.395959 12.282829-10.343434 1.939394-15.773737 8.791919-18.488889 18.618182-6.076768 21.850505-7.240404 44.088889-5.430303 66.585858 1.034343 13.317172 2.456566 26.634343 4.395959 39.822222 3.490909 23.789899 17.971717 39.951515 37.753536 52.105051 16.937374 10.60202 36.20202 14.99798 54.949495 20.816161 19.781818 6.206061 39.822222 11.765657 59.086868 19.39394 19.781818 7.757576 37.494949 19.393939 50.424243 36.977778 6.981818 9.438384 10.472727 19.911111 10.084848 31.547474-0.258586 8.40404-0.775758 16.678788-1.680808 25.082829-1.034343 10.084848-5.947475 18.230303-13.317172 24.953535-5.042424 4.525253-9.826263 9.309091-15.256565 13.317172-11.636364 8.40404-19.264646 19.781818-24.436364 32.840404-3.620202 9.309091-6.593939 18.747475-10.214141 28.056565-0.775758 1.939394-2.327273 4.137374-4.008081 4.783839-9.826263 4.008081-16.808081 11.119192-21.462626 20.040404-12.8 24.694949-14.222222 49.131313 4.00808 72.40404 1.163636 1.422222 1.422222 3.878788 1.551515 5.818182 1.680808 21.850505 2.19798 43.830303 5.171718 65.422222 3.490909 25.341414 9.179798 50.424242 21.591919 73.309091 24.953535 46.028283 63.353535 74.472727 114.682828 84.040404 55.337374 10.343434 107.959596 1.292929 156.961616-27.022222 28.056566-16.290909 47.191919-40.210101 59.086869-69.818182 12.024242-29.866667 18.618182-61.284848 20.428283-93.478788 0.646465-11.377778 1.034343-22.884848 1.680808-34.262626 0.129293-1.422222 0.517172-3.361616 1.422222-4.266667 10.084848-9.567677 13.575758-21.721212 13.187879-35.038383-0.517172-14.351515-2.327273-28.573737-10.989899-40.985859-4.913131-6.981818-11.248485-12.282828-19.006061-15.90303-1.939394-0.905051-3.878788-2.844444-4.525252-4.783839-3.232323-8.40404-5.818182-17.066667-9.050505-25.470707-0.646465-1.810101-2.585859-3.749495-4.39596-4.525252-38.012121-15.773737-71.111111-39.046465-99.426262-68.783839-40.210101-42.149495-66.19798-91.668687-75.765657-149.20404-10.860606-65.163636 0.258586-126.836364 31.806061-184.888889 0.775758-1.810101 1.810101-4.008081 3.232323-6.852525zM800.969697 266.343434h-27.410101v63.741414c0 53.39798-43.313131 96.711111-96.711111 96.711112s-96.840404-43.442424-96.840404-96.711112V266.343434h-27.410101c-13.187879 0-23.919192-10.731313-23.919192-23.919192v-174.416161c0-13.187879 10.731313-23.919192 23.919192-23.919192h248.371717c13.187879 0 23.919192 10.731313 23.919192 23.919192v174.545454c0 13.187879-10.731313 23.789899-23.919192 23.789899z m-110.674748-115.587878v-38.141415c0-1.680808-1.422222-3.10303-3.10303-3.10303h-20.557576c-1.810101 0-3.10303 1.422222-3.10303 3.10303v38.141415c-9.69697 4.913131-16.290909 14.868687-16.290909 26.375757 0 16.420202 13.317172 29.737374 29.737374 29.737374s29.737374-13.317172 29.737374-29.737374c-0.129293-11.507071-6.723232-21.462626-16.420203-26.375757z m46.157576 115.587878h-119.208081v62.189899c0 32.840404 26.763636 59.60404 59.604041 59.604041 32.840404 0 59.60404-26.763636 59.60404-59.604041V266.343434z m0 0"  horiz-adv-x="1024" />

    
    <glyph glyph-name="weidenglu" unicode="&#58899;" d="M430 180c0 108.8 64.8 202.4 157.9 244.4 9.4 13.5 12.8 29.9 14.5 45.8 1.4 14.2-4.6 29-16.8 37.9 15.1 47 25.6 96.5 20.2 145.8-3.2 29.3-14.2 59.3-37.9 79.7-16.3 14.1-38 21.4-59.7 24.5-5.3 7.4-12 14.1-20.2 18.7-22.3 12.8-49.2 16.1-74.9 16.6-45.4-0.6-93.3-7.8-130.8-33.4-18.7-12.6-33.8-29.9-43.6-49.3-12.2-23.8-17.4-50.4-18.6-76.6-1.8-42.5 6.2-84.7 17.2-125.8-11.5-8.4-17.8-22.1-17-35.7 0.9-13.4 3.8-27 9.5-39.4 5.1-11.4 15-21.7 28.5-23.9 3.5-23.4 13.4-45.3 23.8-66.9 13-27.2 35.4-37.6 47.4-40.3v-41c-9.3-24.9-190.5-76.2-239.8-104.9-21.4-12.9-41.8-28-56.8-47.4C13.9 84.5 4.2 7.7 2-23.9v-1.8h524.2C467.4 23.4 430 97.3 430 180zM724.9 407.2c-126.3 0-228.7-102.4-228.7-228.7s102.4-228.7 228.7-228.7 228.7 102.4 228.7 228.7-102.4 228.7-228.7 228.7z m120.9-308.6c11.3-11.3 11.3-29.7 0-41s-29.7-11.3-41 0l-78.9 78.9-78.9-78.9c-11.3-11.3-29.7-11.3-41 0s-11.3 29.7 0 41l78.9 78.9-80.9 80.9c-11.3 11.3-11.3 29.7 0 41s29.7 11.3 41 0l80.9-80.9 80.9 80.9c11.3 11.3 29.7 11.3 41 0s11.3-29.7 0-41l-80.9-80.9 78.9-78.9z"  horiz-adv-x="1024" />

    
    <glyph glyph-name="denglu" unicode="&#58901;" d="M430 180c0 108.8 64.8 202.4 157.9 244.4 9.4 13.5 12.8 29.9 14.5 45.8 1.4 14.2-4.6 29-16.8 37.9 15.1 47 25.6 96.5 20.2 145.8-3.2 29.3-14.2 59.3-37.9 79.7-16.3 14.1-38 21.4-59.7 24.5-5.3 7.4-12 14.1-20.2 18.7-22.3 12.8-49.2 16.1-74.9 16.6-45.4-0.6-93.3-7.8-130.8-33.4-18.7-12.6-33.8-29.9-43.6-49.3-12.2-23.8-17.4-50.4-18.6-76.6-1.8-42.5 6.2-84.7 17.2-125.8-11.5-8.4-17.8-22.1-17-35.7 0.9-13.4 3.8-27 9.5-39.4 5.1-11.4 15-21.7 28.5-23.9 3.5-23.4 13.4-45.3 23.8-66.9 13-27.2 35.4-37.6 47.4-40.3v-41c-9.3-24.9-190.5-76.2-239.8-104.9-21.4-12.9-41.8-28-56.8-47.4C13.9 84.5 4.2 7.7 2-23.9v-1.8h524.2C467.4 23.4 430 97.3 430 180zM714.9 407.2c-126.3 0-228.7-102.4-228.7-228.7s102.4-228.7 228.7-228.7 228.7 102.4 228.7 228.7-102.4 228.7-228.7 228.7z m-23.8-363.5c-1.3-2.6-3.1-5-5.2-7.1-11.3-11.3-29.7-11.3-41 0L524.1 157.4c-11.3 11.3-11.3 29.7 0 41s29.7 11.3 41 0l99.4-99.4 180.4 180.4c11.3 11.3 29.7 11.3 41 0s11.3-29.7 0-41L691.1 43.7z"  horiz-adv-x="1024" />

    
    <glyph glyph-name="huahouchuli" unicode="&#58907;" d="M764.8-12.2h-623V780.2h522v-50h-472v-692.4h523V384.2h50zM824.3 567.6L716.6 675.3l67.3 67.3 107.7-107.7-67.3-67.3zM434 177l-108.1 0.4 0.4 107.3 349.9 350.2 107.7-107.7L434 177z m0 0"  horiz-adv-x="1024" />

    
    <glyph glyph-name="hujiaobohao" unicode="&#58909;" d="M269-11.1c-2.5-1.1-57.3-25.9-112-36.7-20.7-4-55.3-10.8-79.6 5.9-16.5 11.5-27.3 32.1-32.9 63-1.6 7.8-13.9 76.6 30.1 144.9 12 18.7 27.3 36 45.6 51.4 19.1 16.2 41.7 30.6 67.2 42.7 98.5 49.1 198.8 71.1 325.3 71.4 217.5 0.7 350.3-82.1 374.6-98.7 113.7-74.6 97.3-199 95.1-212.9-2.7-19.4-7.8-34.6-15.5-46.6-2.4-3.8-5.5-7.8-9.1-11.4-1.2-1.2-2.5-2.4-3.8-3.6-9.8-8.2-27.3-17.4-54.8-13.3-37.2 5.5-86.5 19.7-135 39.2-50.5 20.1-46.9 53.4-43.4 85.6l0.2 1.2s9.8 54.6 11.5 64.2c1.7 9.4-4.1 18.7-13.4 21.2-63.5 16.9-134.7 26-206.1 26.3-70.2 0.2-140.5-8.1-203.3-24.1-3-0.8-6-2.4-8.5-4.8-0.9-0.9-1.7-1.9-2.5-3l-0.7-1.3c-2.7-5-2.8-10.9-0.6-16 3.7-10.7 9.3-28.7 12.5-45.8 6.1-32.4 3.7-56.6-7.4-73.8-2-3.1-4.5-6.4-7.5-9.4-1.2-1.2-2.4-2.3-3.7-3.4-3.9-3.2-12.1-7.7-22.3-12.2z m0 0M816 338.1c-6.4 0-12.8 2.4-17.7 7.3-38.7 38.7-83.8 68.7-134.1 89.1-48.6 19.7-99.9 29.7-152.6 29.7-52.7 0-104-10-152.6-29.7-50.3-20.4-95.4-50.4-134.1-89.1-9.8-9.8-25.6-9.8-35.4 0-9.8 9.8-9.8 25.6 0 35.4 43.5 43.5 94.2 77.1 150.7 100.1 54.6 22.1 112.2 33.4 171.4 33.4s116.8-11.2 171.4-33.4c56.5-22.9 107.2-56.6 150.7-100.1 9.8-9.8 9.8-25.6 0-35.4-5-4.9-11.4-7.3-17.7-7.3zM912.1 434.2c-6.4 0-12.8 2.4-17.7 7.3-51.7 51.7-112 91.7-179.1 118.9-64.9 26.3-133.4 39.6-203.8 39.6-70.3 0-138.9-13.3-203.8-39.6-67.2-27.2-127.4-67.3-179.1-118.9-9.8-9.8-25.6-9.8-35.4 0-9.8 9.8-9.8 25.6 0 35.4C149.7 533.3 215.6 577 289 606.8c70.9 28.7 145.8 43.3 222.6 43.3s151.7-14.6 222.6-43.3c73.4-29.8 139.2-73.5 195.7-129.9 9.8-9.8 9.8-25.6 0-35.4-5-4.9-11.4-7.3-17.8-7.3z"  horiz-adv-x="1024" />

    
    <glyph glyph-name="hujiaobohao1" unicode="&#58910;" d="M955 379.3L743.2 591.8v-425L955 379.3z m0 0M792.2 399.2l0.1-40.5c0-22.4-18.2-40.5-40.6-40.4l-203.7 0.4c-22.5 0-40.7 18.2-40.8 40.6l-0.1 40.5c0 22.4 18.1 40.5 40.6 40.4l203.6-0.4c22.6-0.1 40.8-18.3 40.9-40.6z m0 0M448.2 138.5c1.1-2.5 25.9-57.3 36.7-112 4-20.7 10.8-55.3-5.9-79.6-11.5-16.5-32.1-27.3-63-32.9-7.8-1.6-76.6-13.9-144.9 30.1-18.7 12-36 27.3-51.4 45.6-16.2 19.1-30.6 41.7-42.7 67.2-49 98.5-71 198.7-71.4 325.3-0.7 217.5 82.1 350.3 98.7 374.6 74.7 113.7 199 97.3 213 95.2 19.4-2.7 34.6-7.8 46.6-15.5 3.8-2.4 7.8-5.5 11.4-9.1 1.2-1.2 2.4-2.5 3.6-3.8 8.2-9.8 17.4-27.3 13.3-54.8-5.5-37.2-19.7-86.5-39.3-135-20.1-50.5-53.4-46.9-85.6-43.4l-1.2 0.2s-54.6 9.8-64.2 11.5c-9.4 1.7-18.7-4.1-21.2-13.4-16.9-63.5-26-134.7-26.3-206.1-0.2-70.2 8.1-140.5 24.1-203.3 0.8-3 2.4-6 4.8-8.5 0.9-0.9 1.9-1.7 3-2.5l1.3-0.7c5-2.7 10.9-2.8 16-0.6 10.7 3.7 28.7 9.3 45.8 12.5 32.4 6.1 56.6 3.7 73.8-7.4 3.1-2 6.4-4.5 9.4-7.5 1.2-1.2 2.3-2.4 3.4-3.7 3.2-3.9 7.8-12.1 12.2-22.4z"  horiz-adv-x="1024" />

    
    <glyph glyph-name="jianting" unicode="&#58914;" d="M168.8 134.6h732.1v-58H168.8zM168.8 677.2v-492h732.1v492H168.8zM348 328h-58V538h58v-210z m110-65h-58V603h58v-340z m108 65h-58V538h58v-210z m110-65h-58V603h58v-340z m108 65h-58V538h58v-210z"  horiz-adv-x="1024" />

    
    <glyph glyph-name="tonghuazhong" unicode="&#58915;" d="M408.2 138.5c1.1-2.5 25.9-57.3 36.7-112 4-20.7 10.8-55.3-5.9-79.6-11.5-16.5-32.1-27.3-63-32.9-7.8-1.6-76.6-13.9-144.9 30.1-18.7 12-36 27.3-51.4 45.6-16.2 19.1-30.6 41.7-42.7 67.2-49 98.5-71 198.7-71.4 325.3-0.7 217.5 82.1 350.3 98.7 374.6 74.7 113.7 199 97.3 213 95.2 19.4-2.7 34.6-7.8 46.6-15.5 3.8-2.4 7.8-5.5 11.4-9.1 1.2-1.2 2.4-2.5 3.6-3.8 8.2-9.8 17.4-27.3 13.3-54.8-5.5-37.2-19.7-86.5-39.3-135-20.1-50.5-53.4-46.9-85.6-43.4l-1.2 0.2s-54.6 9.8-64.2 11.5c-9.4 1.7-18.7-4.1-21.2-13.4-16.9-63.5-26-134.7-26.3-206.1-0.2-70.2 8.1-140.5 24.1-203.3 0.8-3 2.4-6 4.8-8.5 0.9-0.9 1.9-1.7 3-2.5l1.3-0.7c5-2.7 10.9-2.8 16-0.6 10.7 3.7 28.7 9.3 45.8 12.5 32.4 6.1 56.6 3.7 73.8-7.4 3.1-2 6.4-4.5 9.4-7.5 1.2-1.2 2.3-2.4 3.4-3.7 3.2-3.9 7.8-12.1 12.2-22.4z m0 0M427.8 481.2h58v-210h-58zM558 546.2h58v-340h-58zM686 626.2h58v-500h-58z"  horiz-adv-x="1024" />

    
    <glyph glyph-name="zixunhujiao" unicode="&#58916;" d="M408.2 138.5c1.1-2.5 25.9-57.3 36.7-112 4-20.7 10.8-55.3-5.9-79.6-11.5-16.5-32.1-27.3-63-32.9-7.8-1.6-76.6-13.9-144.9 30.1-18.7 12-36 27.3-51.4 45.6-16.2 19.1-30.6 41.7-42.7 67.2-49 98.5-71 198.7-71.4 325.3-0.7 217.5 82.1 350.3 98.7 374.6 74.7 113.7 199 97.3 213 95.2 19.4-2.7 34.6-7.8 46.6-15.5 3.8-2.4 7.8-5.5 11.4-9.1 1.2-1.2 2.4-2.5 3.6-3.8 8.2-9.8 17.4-27.3 13.3-54.8-5.5-37.2-19.7-86.5-39.3-135-20.1-50.5-53.4-46.9-85.6-43.4l-1.2 0.2s-54.6 9.8-64.2 11.5c-9.4 1.7-18.7-4.1-21.2-13.4-16.9-63.5-26-134.7-26.3-206.1-0.2-70.2 8.1-140.5 24.1-203.3 0.8-3 2.4-6 4.8-8.5 0.9-0.9 1.9-1.7 3-2.5l1.3-0.7c5-2.7 10.9-2.8 16-0.6 10.7 3.7 28.7 9.3 45.8 12.5 32.4 6.1 56.6 3.7 73.8-7.4 3.1-2 6.4-4.5 9.4-7.5 1.2-1.2 2.3-2.4 3.4-3.7 3.2-3.9 7.8-12.1 12.2-22.4z m0 0M696.9 238.1s-19.9-15-35.9-15c-20.5 0-35.9 15-35.9 15v34.4c-2.1 58.3 25 107.3 81.2 146.9 62.5 41.7 91.7 84.4 87.5 128.1-6.2 62.5-42.7 95.8-109.4 100-77.1 2.1-127.1-40.6-147.9-128.1 0 0-26.5-14.7-46.1-9.2-16.4 5.1-31 27.9-31 27.9 25 122.9 104.2 182.3 237.5 178.1 112.5-6.2 173.9-60.4 184.4-162.5 6.2-64.6-31.2-122.9-112.5-175-50-29.2-74-66.7-71.9-112.5v-28.1zM663.2 108.9m-49.5 0a49.5 49.5 0 1 1 99 0 49.5 49.5 0 1 1-99 0ZM661.1 235.1m-35.8 0a35.8 35.8 0 1 1 71.6 0 35.8 35.8 0 1 1-71.6 0ZM499.8 535.1m-40.4 0a40.4 40.4 0 1 1 80.8 0 40.4 40.4 0 1 1-80.8 0Z"  horiz-adv-x="1024" />

    
    <glyph glyph-name="sanfangtonghua" unicode="&#58917;" d="M511.1 306.3l212.5 211.9h-425l212.5-211.9z m0 0M491.2 469.2c-22.4 0-40.5 18.3-40.6 40.8l-0.4 203.6c0 22.5 18.1 40.7 40.4 40.6l40.5-0.1c22.4 0 40.6-18.3 40.6-40.8l0.4-203.6c0.1-22.5-18-40.7-40.4-40.6l-40.5 0.1z m0 0M540.6 238.4l211.9-212.5v425L540.6 238.4z m0 0M703.4 218.5l-0.1 40.5c0 22.4 18.2 40.5 40.6 40.4l203.6-0.4c22.5 0 40.7-18.2 40.8-40.6l0.1-40.5c0-22.4-18.1-40.5-40.6-40.4l-203.6 0.4c-22.5 0.1-40.8 18.2-40.8 40.6z m0 0M490.3 239.4L278.5 451.9v-425l211.8 212.5z m0 0M327.5 219.5c0-22.4-18.3-40.5-40.8-40.6l-203.6-0.4c-22.5 0-40.7 18.1-40.6 40.4l0.1 40.5c0 22.4 18.3 40.6 40.8 40.6l203.6 0.4c22.5 0.1 40.7-18 40.6-40.4l-0.1-40.5z m0 0"  horiz-adv-x="1024" />

    
    <glyph glyph-name="peixun" unicode="&#58918;" d="M680.5 352.1c-19.7 67.4-47.7 103.9-93.4 120.1l-13.6-29.9h25.9l-41.7-130.6H693c-4 13.3-8.5 26.8-12.5 40.4zM425.9 442.3l31.9 6-11.2 27.4c-50.8-13.5-79.2-48.7-101.3-123.6-4-13.6-8.4-27.2-12.2-40.4h144.4l-51.6 130.6zM622.4 623.9c0 71.7-48.7 119.3-108.7 119.3S405 695.6 405 623.9c0-1.6 0-3.1 0.1-4.7v-1c2.5-69.6 50.1-134.8 108.6-134.8 59.5 0 107.8 67.5 108.7 138.6v1.9zM496.9 468.9h33.2c8.3 0 15.1-5.6 15.1-12.6l-7.5-17.6c0-7-6.8-12.6-15.1-12.6h-18.1c-8.3 0-15.1 5.6-15.1 12.6l-7.5 17.6c-0.1 7 6.6 12.6 15 12.6zM532 412.6h-37l-11.7-100.9h64.9zM219 311.7h585.5v-95.5H219zM320.7 216.5h382V75h-382z"  horiz-adv-x="1024" />

    
    <glyph glyph-name="shixian" unicode="&#58919;" d="M430 180c0 108.8 64.8 202.4 157.9 244.4 9.4 13.5 12.8 29.9 14.5 45.8 1.4 14.2-4.6 29-16.8 37.9 15.1 47 25.6 96.5 20.2 145.8-3.2 29.3-14.2 59.3-37.9 79.7-16.3 14.1-38 21.4-59.7 24.5-5.3 7.4-12 14.1-20.2 18.7-22.3 12.8-49.2 16.1-74.9 16.6-45.4-0.6-93.3-7.8-130.8-33.4-18.7-12.6-33.8-29.9-43.6-49.3-12.2-23.8-17.4-50.4-18.6-76.6-1.8-42.5 6.2-84.7 17.2-125.8-11.5-8.4-17.8-22.1-17-35.7 0.9-13.4 3.8-27 9.5-39.4 5.1-11.4 15-21.7 28.5-23.9 3.5-23.4 13.4-45.3 23.8-66.9 13-27.2 35.4-37.6 47.4-40.3v-41c-9.3-24.9-190.5-76.2-239.8-104.9-21.4-12.9-41.8-28-56.8-47.4C13.9 84.5 4.2 7.7 2-23.9v-1.8h524.2C467.4 23.4 430 97.3 430 180zM714.9 407.2c-126.3 0-228.7-102.4-228.7-228.7s102.4-228.7 228.7-228.7 228.7 102.4 228.7 228.7-102.4 228.7-228.7 228.7z m151-278.4H721.6c-14.7 0-26.7 12-26.7 26.7V271.3c0 14.7 12 26.7 26.7 26.7h4.7c14.7 0 26.7-12 26.7-26.7v-84.4h113c16 0 29-13 29-29-0.1-16-13.1-29.1-29.1-29.1z"  horiz-adv-x="1024" />

    
    <glyph glyph-name="shimang" unicode="&#58921;" d="M430 180c0 108.8 64.8 202.4 157.9 244.4 9.4 13.5 12.8 29.9 14.5 45.8 1.4 14.2-4.6 29-16.8 37.9 15.1 47 25.6 96.5 20.2 145.8-3.2 29.3-14.2 59.3-37.9 79.7-16.3 14.1-38 21.4-59.7 24.5-5.3 7.4-12 14.1-20.2 18.7-22.3 12.8-49.2 16.1-74.9 16.6-45.4-0.6-93.3-7.8-130.8-33.4-18.7-12.6-33.8-29.9-43.6-49.3-12.2-23.8-17.4-50.4-18.6-76.6-1.8-42.5 6.2-84.7 17.2-125.8-11.5-8.4-17.8-22.1-17-35.7 0.9-13.4 3.8-27 9.5-39.4 5.1-11.4 15-21.7 28.5-23.9 3.5-23.4 13.4-45.3 23.8-66.9 13-27.2 35.4-37.6 47.4-40.3v-41c-9.3-24.9-190.5-76.2-239.8-104.9-21.4-12.9-41.8-28-56.8-47.4C13.9 84.5 4.2 7.7 2-23.9v-1.8h524.2C467.4 23.4 430 97.3 430 180zM714.9 406.9c-126.3 0-228.7-102.4-228.7-228.7s102.4-228.7 228.7-228.7 228.7 102.4 228.7 228.7-102.4 228.7-228.7 228.7z m151-257.7h-302c-16 0-29 13-29 29 0 15.9 13 29 29 29h302c16 0 29-13 29-29s-13.1-29-29-29z"  horiz-adv-x="1024" />

    
    <glyph glyph-name="zhuanTPIN" unicode="&#58922;" d="M376.8 390l247.7-248.5 0.1 497L376.8 390z m0 0M567.2 366.8l-0.1 47.4c0 26.2 21.3 47.3 47.5 47.3l238.1-0.5c26.3 0 47.6-21.3 47.7-47.5l0.1-47.4c0.1-26.1-21.2-47.4-47.5-47.3l-238.1 0.5c-26.3 0.1-47.7 21.3-47.7 47.5z m0 0M188 576m-63 0a63 63 0 1 1 126 0 63 63 0 1 1-126 0ZM375.1 576m-63 0a63 63 0 1 1 126 0 63 63 0 1 1-126 0ZM562.3 576m-63 0a63 63 0 1 1 126 0 63 63 0 1 1-126 0ZM188 390m-63 0a63 63 0 1 1 126 0 63 63 0 1 1-126 0ZM375.1 390m-63 0a63 63 0 1 1 126 0 63 63 0 1 1-126 0ZM562.3 390m-63 0a63 63 0 1 1 126 0 63 63 0 1 1-126 0ZM188 202.1m-63 0a63 63 0 1 1 126 0 63 63 0 1 1-126 0ZM375.1 202.1m-63 0a63 63 0 1 1 126 0 63 63 0 1 1-126 0ZM562.3 202.1m-63 0a63 63 0 1 1 126 0 63 63 0 1 1-126 0Z"  horiz-adv-x="1024" />

    
    <glyph glyph-name="yongcan" unicode="&#58923;" d="M515.2 612.9C381.4 612.9 273 504.5 273 370.7s108.4-242.2 242.2-242.2S757.4 237 757.4 370.8 649 612.9 515.2 612.9z m2.2-44.1c-98.8 0-178.9-80.1-178.9-178.9 0-6.5 0.4-12.9 1-19.2-6.3 16.7-9.8 34.9-9.8 53.8 0 84.2 68.3 152.5 152.5 152.5 18.2 0 35.6-3.2 51.7-9-5.4 0.6-10.9 0.8-16.5 0.8zM173.4 602.1h-3.3c-2-37-5-70.9-7-108 0-15.3-18.8-14.1-18.9 0.3-1.1 37.7-2.2 70-3.3 107.7h-7.3c-4.4-44.4-11.6-90.5-7.2-123.3 4.5-32.8 25.5-27.5 31.9-61.6 9.6-51.7 4.2-117.7 0-141.5-3.1-17.5-18.3-116.8-14-131.6 3.3-11.2 16.5-15.6 28.9-15.5 12.4 0.1 25.8 3.7 29.1 15.5 4.1 14.8-10.9 114-14 131.6-4.2 23.9-9.6 89.8 0 141.5 6.3 34.1 27.4 28.8 31.9 61.6s-2.8 78.9-7.2 123.3h-7.3c-1.1-37.7-2.2-70-3.3-107.7-0.1-14.3-18.9-15.5-18.9-0.3-2 37-5 70.9-7 108h-3.1M809.5 478.8c2-33.1 39.9-27.5 46.2-61.6 9.6-51.7 4.2-117.7 0-141.5-3.1-17.5-18.3-116.8-14-131.6 3.3-11.2 16.5-15.6 28.9-15.5 12.4 0.1 25.8 3.7 29.1 15.5 4.1 14.8-10.9 114-14 131.6-4.2 23.9-9.6 89.8 0 141.5 6.3 34.1 43 28.6 46.3 61.6 8 80.5-33 123.7-61.4 123.7-25 0-66.6-32.4-61.1-123.7z m0 0"  horiz-adv-x="1024" />

    
    <glyph glyph-name="shigongdanguanli_normal" unicode="&#58924;" d="M560.6 612.4v65.5L691.5 547H626c-36.1 0-65.4 29.3-65.4 65.4zM593.3 514.2c-36.1 0-65.5 29.3-65.5 65.5V710.6H233.3c-36.1 0-65.5-29.3-65.5-65.5v-523.6c0-36.1 29.3-65.5 65.5-65.5h329.5c-60.1 37.6-100.4 103.9-100.4 180 0 117.5 95.2 212.7 212.7 212.7 17 0 33.3-2.5 49.1-6.2v71.7H593.3zM264.1 562h163.6v-32.7H264.1V562z m163.6-358.8H264.1V236h163.6v-32.8z m0 108.7H264.1v32.7h163.6v-32.7zM469 420.6H264.1v32.7H469v-32.7zM716 289.70000000000005v-75.2H606.6v75.2l-61.6-1.6 116.3 117.8 116.3-116.2H716z m0-136.8H606.6v34.2H716v-34.2z m0-61.5H606.6v34.2H716v-34.2z m0 0"  horiz-adv-x="1024" />

    
    <glyph glyph-name="shenhegongdan" unicode="&#58925;" d="M560.6 612.4v65.5L691.5 547H626c-36.1 0-65.4 29.3-65.4 65.4zM593.3 514.2c-36.1 0-65.5 29.3-65.5 65.5V710.6H233.3c-36.1 0-65.5-29.3-65.5-65.5v-523.6c0-36.1 29.3-65.5 65.5-65.5h329.5c-60.1 37.6-100.4 103.9-100.4 180 0 117.5 95.2 212.7 212.7 212.7 17 0 33.3-2.5 49.1-6.2v71.7H593.3zM264.1 562h163.6v-32.7H264.1V562z m163.6-358.8H264.1V236h163.6v-32.8z m0 108.7H264.1v32.7h163.6v-32.7zM469 420.6H264.1v32.7H469v-32.7zM779.7 138.2H557.9c-3 0-5.4-3.2-5.4-7.2v-7.2c0-4 2.4-7.2 5.4-7.2h221.2c3 0 5.4 3.2 5.4 7.2V131c0 4-2.4 7.2-4.8 7.2z m5.2 24v16.5c0 9.3-2.1 11.2-11.7 11.2h-34.7c-2.7 0.3-5.6 2-8 3.9-0.1 0-0.2 0.1-0.2 0.1-1 0.7-2.4 2-3.7 3.5-0.7 0.7-1.3 1.4-1.9 2.1-1.1 1.2-2.1 2.5-3.2 3.8-20.6 24.3-7.3 41 7.4 64 2.8 3.3 5.5 6.6 7.6 10.6 6.2 10.6 9.7 22.5 9.7 35.7 0 41-34.6 74.7-78.2 74.7-42.9 0-78.2-33.1-78.2-74.8 0-17.2 6.2-33.1 16.6-45.6 16.6-25.1 43.6-45.6 0-78h-41.5c-7.6 0-11.7-4-11.7-11.2v-17.2c0-6.6 4.9-5.3 12.4-5.3h213.1c6.9 0.8 6.2-1.2 6.2 6z m0 0"  horiz-adv-x="1024" />

    
    <glyph glyph-name="xinjiangongdan" unicode="&#58926;" d="M560.6 612.4v65.5L691.5 547H626c-36.1 0-65.4 29.3-65.4 65.4zM593.3 514.2c-36.1 0-65.5 29.3-65.5 65.5V710.6H233.3c-36.1 0-65.5-29.3-65.5-65.5v-523.6c0-36.1 29.3-65.5 65.5-65.5h329.5c-60.1 37.6-100.4 103.9-100.4 180 0 117.5 95.2 212.7 212.7 212.7 17 0 33.3-2.5 49.1-6.2v71.7H593.3zM264.1 562h163.6v-32.7H264.1V562z m163.6-358.8H264.1V236h163.6v-32.8z m0 108.7H264.1v32.7h163.6v-32.7zM469 420.6H264.1v32.7H469v-32.7zM512.5 280.5H799v-57.6H512.5zM626.9 394.9h57.6v-286.5h-57.6z"  horiz-adv-x="1024" />

    
    <glyph glyph-name="shenheweitongguo" unicode="&#58927;" d="M560.6 612.4v65.5L691.5 547H626c-36.1 0-65.4 29.3-65.4 65.4zM593.3 514.2c-36.1 0-65.5 29.3-65.5 65.5V710.6H233.3c-36.1 0-65.5-29.3-65.5-65.5v-523.6c0-36.1 29.3-65.5 65.5-65.5h329.5c-60.1 37.6-100.4 103.9-100.4 180 0 117.5 95.2 212.7 212.7 212.7 17 0 33.3-2.5 49.1-6.2v71.7H593.3zM264.1 562h163.6v-32.7H264.1V562z m163.6-358.8H264.1V236h163.6v-32.8z m0 108.7H264.1v32.7h163.6v-32.7zM469 420.6H264.1v32.7H469v-32.7zM534.064 170.793l202.584 202.584 40.729-40.729-202.584-202.584zM534.014 332.557l40.729 40.729 202.584-202.584-40.729-40.73z"  horiz-adv-x="1024" />

    
    <glyph glyph-name="tuihuigongdan" unicode="&#58929;" d="M560.6 612.4v65.5L691.5 547H626c-36.1 0-65.4 29.3-65.4 65.4zM593.3 514.2c-36.1 0-65.5 29.3-65.5 65.5V710.6H233.3c-36.1 0-65.5-29.3-65.5-65.5v-523.6c0-36.1 29.3-65.5 65.5-65.5h329.5c-60.1 37.6-100.4 103.9-100.4 180 0 117.5 95.2 212.7 212.7 212.7 17 0 33.3-2.5 49.1-6.2v71.7H593.3zM264.1 562h163.6v-32.7H264.1V562z m163.6-358.8H264.1V236h163.6v-32.8z m0 108.7H264.1v32.7h163.6v-32.7zM469 420.6H264.1v32.7H469v-32.7zM679.7 389v-50.2c-20.4 0-146.8-1-146.8-123.8 0-66.1 47.5-120.1 108.9-128.7-38.2 8.1-67 43.2-67 85.2 0 80.3 75.3 81 104.9 81v-59l97.6 97.4-97.6 98.1z m0 0"  horiz-adv-x="1024" />

    
    <glyph glyph-name="zhishiku" unicode="&#58991;" d="M704 832H576c-25.6 0-42.667-17.067-42.667-42.667v-810.666C533.333-46.93299999999999 550.4-64 576-64h128c25.6 0 42.667 17.067 42.667 42.667V789.333C746.667 814.933 729.6 832 704 832z m-21.333-512h-85.334c-12.8 0-21.333 8.533-21.333 21.333 0 12.8 8.533 21.334 21.333 21.334h85.334c12.8 0 21.333-8.534 21.333-21.334 0-12.8-8.533-21.333-21.333-21.333z m0 128h-85.334c-12.8 0-21.333 8.533-21.333 21.333 0 12.8 8.533 21.334 21.333 21.334h85.334c12.8 0 21.333-8.534 21.333-21.334 0-12.8-8.533-21.333-21.333-21.333z m0 128h-85.334c-12.8 0-21.333 8.533-21.333 21.333 0 12.8 8.533 21.334 21.333 21.334h85.334c12.8 0 21.333-8.534 21.333-21.334 0-12.8-8.533-21.333-21.333-21.333z m0 128h-85.334c-12.8 0-21.333 8.533-21.333 21.333 0 12.8 8.533 21.334 21.333 21.334h85.334c12.8 0 21.333-8.534 21.333-21.334 0-12.8-8.533-21.333-21.333-21.333zM503.467 785.067L379.733 827.733c-21.333 8.534-46.933 0-55.466-21.333L25.6 42.66700000000003c-8.533-21.334 4.267-46.934 25.6-55.467l123.733-46.933c21.334-8.534 46.934 4.266 55.467 25.6L529.067 729.6c8.533 21.333 0 46.933-25.6 55.467zM324.267 320C320 307.20000000000005 307.2 302.933 294.4 307.20000000000005l-81.067 29.867c-12.8 4.266-17.066 17.066-12.8 29.866S217.6 384 230.4 379.73299999999995l81.067-29.866c12.8-4.267 17.066-17.067 12.8-29.867zM371.2 439.467c-4.267-8.534-17.067-12.8-29.867-8.534L260.267 460.8c-12.8 4.267-17.067 17.067-12.8 29.867 4.266 12.8 17.066 17.066 29.866 12.8l81.067-34.134c12.8-4.266 17.067-17.066 12.8-29.866zM418.133 563.2c-4.266-12.8-17.066-17.067-29.866-12.8L307.2 580.267c-12.8 4.266-17.067 17.066-12.8 29.866 4.267 8.534 17.067 12.8 29.867 8.534l81.066-29.867c12.8-4.267 17.067-17.067 12.8-25.6z m46.934 119.467c-4.267-12.8-17.067-17.067-29.867-12.8l-81.067 29.866c-12.8 4.267-17.066 17.067-12.8 29.867 4.267 12.8 17.067 17.067 29.867 12.8l81.067-29.867c12.8-4.266 17.066-17.066 12.8-29.866zM960 832H832c-25.6 0-42.667-17.067-42.667-42.667v-810.666C789.333-46.93299999999999 806.4-64 832-64h128c25.6 0 42.667 17.067 42.667 42.667V789.333C1002.667 814.933 985.6 832 960 832z m-21.333-512h-85.334c-12.8 0-21.333 8.533-21.333 21.333 0 12.8 8.533 21.334 21.333 21.334h85.334c12.8 0 21.333-8.534 21.333-21.334 0-12.8-8.533-21.333-21.333-21.333z m0 128h-85.334c-12.8 0-21.333 8.533-21.333 21.333 0 12.8 8.533 21.334 21.333 21.334h85.334c12.8 0 21.333-8.534 21.333-21.334 0-12.8-8.533-21.333-21.333-21.333z m0 128h-85.334c-12.8 0-21.333 8.533-21.333 21.333 0 12.8 8.533 21.334 21.333 21.334h85.334c12.8 0 21.333-8.534 21.333-21.334 0-12.8-8.533-21.333-21.333-21.333z m0 128h-85.334c-12.8 0-21.333 8.533-21.333 21.333 0 12.8 8.533 21.334 21.333 21.334h85.334c12.8 0 21.333-8.534 21.333-21.334 0-12.8-8.533-21.333-21.333-21.333z"  horiz-adv-x="1024" />

    
    <glyph glyph-name="chulijieguo1" unicode="&#58930;" d="M921.974363 896H102.870333C46.567928 896 0.980174 849.936395 0.980174 793.633989L0.340374-128 205.072395 76.732021h716.738019c56.302405 0 102.366011 46.071603 102.366011 102.372009V793.633989C1024.340374 849.936395 978.276769 896 921.974363 896z m-191.016307-565.50328l-63.148267-63.148266L514.179799 420.980444l-153.627991-153.627992-63.148267 63.146267L451.031533 484.12871l-153.629991 153.62999 63.148266 63.148267L514.179799 547.274977l153.62999 153.62999 63.148267-63.146267L577.328065 484.12871l153.629991-153.63199z"  horiz-adv-x="1048" />

    
    <glyph glyph-name="aixin" unicode="&#58933;" d="M669.60303 113.980699c39.156187-11.272366 77.070764-37.50586 68.966819-84.489506-5.359697-31.186191-29.127147-57.431707-62.097614-58.254294-127.629831-3.025885-179.832356-8.653481-260.34631 28.156872-35.721584 16.357295-56.597098 49.604248-71.302349 85.185013 139.309197-87.790159 169.262366-77.486351 329.587897-73.636162 10.853344 0.274768 25.276958 8.653481 25.276958 25.143008 0.13395 38.330165-28.986328 45.19937-83.113948 55.22841-46.574928 8.512662-86.005883 6.728386-120.762343 38.055396-118.150328 106.331861-226.271617 124.461411-364.481742 60.447288C91.899443 171.541204 53.984865 148.185906 16.204237 126.750552v-194.668122c51.927756 17.313832 110.316 39.156187 162.386292 52.06514 22.807478 5.6379 43.415094-0.680051 64.163528-11.675931 137.109335-72.950959 144.112489-72.264038 298.810423-98.3653 20.466797-3.434603 38.464114-2.881632 58.247425 3.293784 194.537607 60.042005 211.020264 66.636442 407.616916 189.871699 64.156659 40.246673 25.009059 105.504122-43.408225 77.6203a10314.963292 10314.963292 0 0 1-35.721584-14.428765c6.594437 22.257942-25.692545 37.643244-57.838707 25.692545-7.143973-2.744247-14.980019-6.17885-23.6335-10.303808 2.610298 24.042218-29.951452 39.011933-75.695206 20.470231-10.853344-4.531958-78.444605-42.037818-101.528569-52.341626zM847.652827 571.33066C780.88587 455.239376 644.602557 341.487056 555.43684 296.148585c-89.299667 45.336754-225.582979 159.090791-292.349936 275.182075h125.429969c6.177133 0 11.813316 2.33553 16.072222 6.17885l58.388244 45.19937 69.652023-136.832849c6.044901-11.813316 20.473666-16.482658 32.286981-10.580293a23.733104 23.733104 0 0 1 12.362852 15.799171L642.126209 685.907284l56.463149-102.213772c4.401443-7.968278 12.503671-12.503671 21.023202-12.503671h128.040267v0.140819zM555.43684 837.713283C434.676214 961.499794 223.515131 875.770397 223.515131 696.61981c0-24.859653 5.909234-50.967785 16.346991-77.479482h140.684755l76.24646 58.93778c10.444626 8.103945 25.416059 6.17885 33.520004-4.258907 0.966841-1.241609 1.791145-2.474631 2.340682-3.709371l56.873583-111.557609 64.707913 194.262839c4.124958 12.496801 17.722549 19.366007 30.227937 15.247918 5.909234-1.925095 10.578576-6.044901 13.463642-11.263779l75.976844-137.658871h137.243284c10.444626 26.37603 16.348708 52.619829 16.348708 77.479482C887.35855 875.770397 676.056648 961.499794 555.43684 837.713283zM239.862122 619.140328s16.233649-42.468861 23.224782-47.809668L564.023347 436.622113l141.677356 79.854509 141.952124 54.713219s20.683177 40.555787 23.492681 47.950487-36.861872 42.662916-36.861872 42.662915l-58.602906 48.943087-61.178858 32.628724-51.446912 46.724334-110.480861-13.73841L483.310186 760.333405l-96.168872-14.883851-147.279192-126.309226z"  horiz-adv-x="1220" />

    
    <glyph glyph-name="quanping" unicode="&#59062;" d="M455.2 328.7c-15.9 16-41.8 16-57.7 0L211.8 145.6l1 114.6c0.3 16.5-12.7 31-29.2 30.5h-22.2c-16.5-0.4-30.2-10.3-30.5-26.8l-0.9-212.3c0-0.3 1.1-0.5 1.1-0.8l-1.6-15c-0.2-8.3 1.7-15.7 7.1-21 5.3-5.4 12.7-8.6 20.9-8.4l15 0.3c0.3 0 0.5 0.2 0.8 0.2l213.1-1.3c16.5 0.4 30.2 14.1 30.5 30.6v21c-2.5 19.5-17.8 29.7-34.3 29.2l-112.9 0.3 185.4 184.1c16 16 16 41.9 0.1 57.9zM570.9 330.5c-16-16-16-41.7 0-57.7l186.2-187.7-117.3 1c-16.5 0.4-30.9-12.8-30.5-29.2v-21c0.4-16.5 10.3-30.1 26.8-30.5l214.2-0.9c0.3 0 0.5 1.1 0.8 1.1l15-1.7c8.3-0.2 15.7 1.7 21 7.1 5.4 5.3 8.6 12.7 8.3 21l-0.3 14.9c0 0.3-0.1 0.5-0.2 0.9l1.3 213.4c-0.3 16.5-14.1 30.1-30.6 30.5l-21 0.1c-19.5-2.5-30.9-17.8-30.5-34.3l-0.4-113.2-184.9 186.2c-16 15.9-41.9 15.9-57.9 0zM454 439.7c15.9 16 15.9 41.9 0 57.8L268.6 681.6l112.9 0.3c16.4-0.4 31.7 9.7 34.3 29.2v21c-0.3 16.5-14 30.2-30.5 30.6l-213.1-1.3c-0.3 0-0.5 0.2-0.8 0.2l-15 0.3c-8.2 0.2-15.6-3-20.9-8.4-5.4-5.3-7.3-12.8-7.1-21l1.6-15c0-0.3-1.1-0.5-1.1-0.8l0.9-212.4c0.3-16.5 14-26.4 30.5-26.8h22.2c16.5-0.4 29.6 14 29.2 30.5l-1 114.6 185.6-183.1c15.9-15.8 41.8-15.8 57.7 0.2zM569.8 437.9c16-15.9 41.9-15.9 57.8 0l184.8 186.2 0.4-113.2c-0.3-16.4 11-31.7 30.5-34.3l21 0.1c16.5 0.4 30.3 14 30.6 30.5l-1.3 213.4c0.1 0.3 0.2 0.5 0.2 0.9l0.3 14.9c0.3 8.3-3 15.7-8.3 21-5.3 5.4-12.8 7.3-21 7.1l-15-1.7c-0.3 0-0.4 1.1-0.8 1.1l-214.2-0.9c-16.5-0.4-26.4-14-26.8-30.5v-21c-0.3-16.4 14-29.7 30.5-29.2l117.3 1-186-187.6c-16-16-16-41.8 0-57.8z"  horiz-adv-x="1024" />

    
    <glyph glyph-name="renwuchenggong" unicode="&#58935;" d="M708.324059 399.336422c-106.640584 0-202.788922-64.239696-243.59509-162.775367-40.810915-98.524597-18.249104-211.93325 57.164707-287.334404 75.413811-75.407483 188.822464-97.959801 287.348643-57.139394 98.519851 40.818825 162.754801 136.963998 162.748472 243.612493a263.641419 263.641419 0 0 1-263.666732 263.636672z m119.048709-285.465987l-67.679101-143.643471c-5.576774-11.738912-19.582784-16.774621-31.356502-11.272204l-143.665621 67.688594c-11.776882 5.551461-16.829993 19.598605-11.280114 31.377069 5.551461 11.778464 19.597023 16.823665 31.373905 11.272204l122.377371-57.658311 89.279018 185.614039c5.551461 11.776882 19.598605 16.828411 31.37074 11.280114 11.780046-5.549879 16.829993-19.597023 11.278532-31.373905l-31.698228-63.284129zM726.054247 896H93.594234c-38.792201-0.055372-70.22306-31.481485-70.297418-70.272104v-828.574209c0.074357-38.779545 31.49256-70.197747 70.272105-70.272104h342.744602c-81.69144 114.952747-82.310027 268.852737-1.537766 384.45413 80.765933 115.607721 225.486789 167.964536 361.526863 130.798696v383.6188c-0.087014 38.758978-31.487813 70.159778-70.248373 70.246791zM291.443953 262.396155c0.074357-19.324908-15.529537-35.060113-34.860773-35.145545H186.051617a35.011069 35.011069 0 0 0-35.145545 34.917728v0.204086a35.004741 35.004741 0 0 0 10.17267 24.813087 35.049039 35.049039 0 0 0 24.738729 10.338786h70.50625a35.045875 35.045875 0 0 0 24.794102-10.185326 35.031636 35.031636 0 0 0 10.32613-24.733984v-0.208832z m35.120231 175.688171H186.051617c-19.405593 0-35.132888 15.735205-35.132888 35.139216 0 19.405593 15.727295 35.132888 35.132888 35.132888h140.512567c19.405593 0 35.139216-15.727295 35.139216-35.132888 0-19.404011-15.733623-35.139216-35.139216-35.139216zM642.798146 684.046183a35.011069 35.011069 0 0 0-34.917728-35.145544H186.051617a34.999995 34.999995 0 0 0-24.794102 10.185326 34.98101 34.98101 0 0 0-10.32613 24.726073v0.208832a34.995248 34.995248 0 0 0 10.183744 24.794102 34.995248 34.995248 0 0 0 24.726073 10.327712h421.836712c19.324908 0.0617 35.045875-15.55485 35.120232-34.886086v-0.210415z m0 0"  horiz-adv-x="1228" />

    
    <glyph glyph-name="Avaya" unicode="&#58939;" d="M838.4-115.2H185.6c-32 0-64 25.6-64 64V697.6c0 32 25.6 64 57.6 64v-748.8c0-32 32-64 64-64h121.6c32 0 70.4 25.6 70.4 64V761.6H832c32 0 57.6-32 57.6-64v-748.8c12.8-32-19.2-64-51.2-64zM704-12.8h57.6v57.6H704v-57.6z m0 76.8h57.6v64H704v-64z m0 83.2h57.6v57.6H704v-57.6z m0 76.8h57.6v64H704v-64z m-83.2-236.8h57.6v57.6h-57.6v-57.6z m0 76.8h57.6v64h-57.6v-64z m0 83.2h57.6v57.6h-57.6v-57.6z m0 76.8h57.6v64h-57.6v-64z m-76.8-236.8h57.6v57.6h-57.6v-57.6z m0 76.8h57.6v64h-57.6v-64z m0 83.2h57.6v57.6h-57.6v-57.6z m0 76.8h57.6v64h-57.6v-64z m294.4 448c0 19.2-12.8 32-32 32H531.2c-19.2 0-32-12.8-32-32v-134.4c0-19.2 12.8-32 32-32h275.2c19.2 0 32 12.8 32 32V672z m0-384h-57.6v-57.6h57.6v57.6z m0-83.2h-57.6v-57.6h57.6v57.6z m0-76.8h-57.6v-64h57.6v64z m0-83.2h-57.6v-57.6h57.6v57.6z m-467.2-57.6H256c-19.2 0-32 12.8-32 32v768c0 19.2 12.8 32 32 32h51.2v64h38.4v-57.6h32c19.2 0 32-12.8 32-32v-774.4c-6.4-19.2-19.2-32-38.4-32z m0 0"  horiz-adv-x="1024" />

    
    <glyph glyph-name="ASR" unicode="&#58940;" d="M36.77 440.32C16.43 440.32 0 421.143 0 397.498v-120.087c0-23.645 16.43-42.822 36.77-42.822 20.295 0 36.725 19.177 36.725 42.822V397.498c0 23.645-16.43 42.822-36.77 42.822z m146.945 44.125c-20.294 0-36.771-17.315-36.771-38.68v-216.622c0-21.364 16.477-38.632 36.77-38.632 20.295 0 36.772 17.268 36.772 38.632V445.766c0 21.364-16.477 38.633-36.771 38.633z m146.99 88.204c-20.293 0-36.77-19.55-36.77-43.567v-383.255c0-24.064 16.477-43.567 36.77-43.567 20.294 0 36.771 19.55 36.771 43.567V529.082c0 24.064-16.477 43.567-36.77 43.567z m455.68 0c-20.293 0-36.77-19.55-36.77-43.567v-383.255c0-24.064 16.477-43.567 36.77-43.567 20.294 0 36.771 19.55 36.771 43.567V529.082c0 24.064-16.477 43.567-36.77 43.567z m146.991-88.204c-20.294 0-36.77-17.315-36.77-38.68v-216.622c0-21.364 16.476-38.632 36.77-38.632 20.294 0 36.77 17.268 36.77 38.632V445.766c0 21.364-16.476 38.633-36.77 38.633z m146.99-44.078c-20.34 0-36.77-19.224-36.77-42.915v-119.995c0-23.738 16.43-42.914 36.77-42.914 20.294 0 36.725 19.223 36.725 42.914V397.452c0 23.738-16.43 42.915-36.771 42.915zM632.042-118.18V749.01h308.69L970.1 896H146.99l29.37-146.99h308.69v-867.189h146.99z"  horiz-adv-x="1117" />

    
    </font>
</defs>
</svg>
